<svg width="184" height="153" viewBox="0 0 184 153" fill="none" xmlns="http://www.w3.org/2000/svg">
  <path d="M91.797 152.114C129.24 152.114 159.594 146.442 159.594 139.446C159.594 132.45 129.24 126.778 91.797 126.778C54.3537 126.778 24 132.45 24 139.446C24 146.442 54.3537 152.114 91.797 152.114Z" fill="#ABAEBC"/>
  <path fill-rule="evenodd" clip-rule="evenodd" d="M146.034 102.23L122.109 72.785C120.961 71.399 119.283 70.56 117.516 70.56H66.0761C64.3101 70.56 62.6321 71.399 61.4841 72.785L37.5601 102.23V115.613H146.035V102.23H146.034Z" fill="#ABAEBC"/>
  <path fill-rule="evenodd" clip-rule="evenodd" d="M57.8301 32.556H125.763C126.824 32.556 127.841 32.9774 128.592 33.7276C129.342 34.4777 129.763 35.4951 129.763 36.556V129.9C129.763 130.961 129.342 131.978 128.592 132.728C127.841 133.479 126.824 133.9 125.763 133.9H57.8301C56.7692 133.9 55.7518 133.479 55.0017 132.728C54.2515 131.978 53.8301 130.961 53.8301 129.9V36.556C53.8301 35.4951 54.2515 34.4777 55.0017 33.7276C55.7518 32.9774 56.7692 32.556 57.8301 32.556Z" fill="#F8F9FC"/>
  <path fill-rule="evenodd" clip-rule="evenodd" d="M66.6781 42.509H116.915C117.446 42.509 117.954 42.7197 118.329 43.0948C118.704 43.4699 118.915 43.9786 118.915 44.509V69.466C118.915 69.9964 118.704 70.5051 118.329 70.8802C117.954 71.2553 117.446 71.466 116.915 71.466H66.6781C66.1476 71.466 65.6389 71.2553 65.2639 70.8802C64.8888 70.5051 64.6781 69.9964 64.6781 69.466V44.509C64.6781 43.9786 64.8888 43.4699 65.2639 43.0948C65.6389 42.7197 66.1476 42.509 66.6781 42.509ZM66.9401 82.323H116.653C117.253 82.323 117.828 82.5613 118.253 82.9855C118.677 83.4097 118.915 83.9851 118.915 84.585C118.915 85.1849 118.677 85.7603 118.253 86.1845C117.828 86.6087 117.253 86.847 116.653 86.847H66.9401C66.3402 86.847 65.7648 86.6087 65.3406 86.1845C64.9164 85.7603 64.6781 85.1849 64.6781 84.585C64.6781 83.9851 64.9164 83.4097 65.3406 82.9855C65.7648 82.5613 66.3402 82.323 66.9401 82.323ZM66.9401 94.086H116.653C117.253 94.086 117.829 94.3244 118.253 94.7487C118.677 95.173 118.916 95.7484 118.916 96.3485C118.916 96.9485 118.677 97.524 118.253 97.9483C117.829 98.3726 117.253 98.611 116.653 98.611H66.9401C66.34 98.611 65.7646 98.3726 65.3403 97.9483C64.916 97.524 64.6776 96.9485 64.6776 96.3485C64.6776 95.7484 64.916 95.173 65.3403 94.7487C65.7646 94.3244 66.34 94.086 66.9401 94.086ZM145.813 137.588C145.038 140.659 142.316 142.948 139.078 142.948H44.5151C41.2771 142.948 38.5551 140.658 37.7811 137.588C37.6335 137.003 37.5589 136.402 37.5591 135.798V102.231H63.8771C66.7841 102.231 69.1271 104.679 69.1271 107.651V107.691C69.1271 110.662 71.4971 113.061 74.4041 113.061H109.189C112.096 113.061 114.466 110.64 114.466 107.668V107.656C114.466 104.684 116.809 102.23 119.716 102.23H146.034V135.799C146.034 136.416 145.957 137.015 145.813 137.588Z" fill="#D7DAE3"/>
  <g clip-path="url(#clip0_4774_27508)">
    <g style="mix-blend-mode:multiply">
      <path d="M98.1959 63.9953C99.1548 63.5663 99.0625 61.3714 98.2895 60.8064C93.6882 57.4437 89.1963 53.8403 85.6318 49.3388C84.3603 47.7331 83.505 50.8369 84.3189 51.8646C88.0405 56.5643 96.0237 64.9669 98.1959 63.9952V63.9953Z" fill="#ABAEBC"/>
      <path d="M84.8493 64.2741C85.3325 65.2127 87.5001 64.9858 88.0122 64.1736C91.0608 59.3383 94.3544 54.5984 98.5937 50.737C100.106 49.3595 96.9806 48.6883 96.0127 49.57C91.5867 53.6017 83.7546 62.1476 84.8493 64.2741Z" fill="#ABAEBC"/>
    </g>
  </g>
  <path fill-rule="evenodd" clip-rule="evenodd" d="M149.121 34.178L142.291 36.828C142.116 36.8962 141.925 36.9136 141.74 36.878C141.555 36.8424 141.384 36.7553 141.246 36.6268C141.109 36.4983 141.01 36.3336 140.962 36.1516C140.914 35.9696 140.918 35.7777 140.974 35.598L142.911 29.391C140.322 26.447 138.802 22.857 138.802 18.983C138.802 8.98801 148.92 0.886009 161.402 0.886009C173.881 0.886009 184 8.98801 184 18.983C184 28.978 173.882 37.08 161.401 37.08C156.873 37.08 152.657 36.014 149.121 34.178Z" fill="#F8F9FC"/>
  <g clip-path="url(#clip1_4774_27508)">
    <path d="M162.283 26.7738C162.043 28.0803 160.789 28.9448 159.482 28.7047C158.176 28.4645 157.311 27.2106 157.551 25.9041C157.792 24.5976 159.046 23.733 160.352 23.9732C161.659 24.2133 162.523 25.4673 162.283 26.7738Z" fill="#ABAEBC"/>
    <path d="M163.495 20.1933C163.19 21.262 162.046 21.9717 160.953 21.7708L160.574 21.7012C159.481 21.5003 158.664 20.4301 158.759 19.3226L159.691 8.41939C159.786 7.31197 160.758 6.57061 161.851 6.77151L165.069 7.36298C166.162 7.56389 166.806 8.60247 166.501 9.67116L163.496 20.1934L163.495 20.1933Z" fill="#ABAEBC"/>
  </g>
  <defs>
    <clipPath id="clip0_4774_27508">
      <rect width="15" height="16" fill="white" transform="translate(84 48.886)"/>
    </clipPath>
    <clipPath id="clip1_4774_27508">
      <rect width="6.94267" height="22" fill="white" transform="translate(160.046 6.4397) rotate(10.4154)"/>
    </clipPath>
  </defs>
</svg>
