<svg width="144" height="30" viewBox="0 0 144 30" fill="none" xmlns="http://www.w3.org/2000/svg">
<g clip-path="url(#clip0_21_95018)">
<path d="M35.9857 18.7355C35.9857 19.394 36.1472 19.9914 36.4733 20.5214C36.7994 21.0514 37.23 21.4754 37.7651 21.7901C38.3033 22.1049 38.9017 22.2623 39.5666 22.2623C40.2726 22.2623 40.9026 22.1049 41.4535 21.7901C42.0044 21.4754 42.4382 21.0514 42.758 20.5214C43.0746 19.9914 43.2361 19.3972 43.2361 18.7355V8.69165H45.1642C45.3288 8.69165 45.4618 8.82655 45.4618 8.99357V18.7998C45.4618 19.9336 45.199 20.9261 44.6766 21.7773C44.1542 22.6317 43.4482 23.2934 42.5553 23.7655C41.6657 24.2377 40.6684 24.4754 39.5666 24.4754C38.4648 24.4754 37.5086 24.2377 36.6189 23.7655C35.7293 23.2934 35.0264 22.6285 34.5103 21.7773C33.9942 20.9229 33.7378 19.9304 33.7378 18.7998V8.69165H35.6881C35.8527 8.69165 35.9857 8.82655 35.9857 8.99357V18.7355Z" fill="white"/>
<path d="M60.4913 8.69165V19.0728L49.3594 8.7334H49.2549V24C49.2549 24.167 49.3879 24.3051 49.5557 24.3051H51.544V14.1071L62.6759 24.3019H62.7392V8.99357C62.7392 8.82655 62.6063 8.69165 62.4416 8.69165H60.4913Z" fill="white"/>
<path d="M66.7888 8.69165H68.7581C68.9228 8.69165 69.0557 8.82655 69.0557 8.99357V24.3051H67.0864C66.9218 24.3051 66.7856 24.1702 66.7856 24V8.69165H66.7888Z" fill="white"/>
<path d="M77.3253 8.69165C78.4714 8.69165 79.4498 8.88758 80.2603 9.28265C81.074 9.67773 81.6945 10.2398 82.1251 10.9722C82.5557 11.7045 82.771 12.5942 82.771 13.6381C82.771 14.2548 82.6792 14.8651 82.4955 15.4657C82.3119 16.0664 82.0175 16.6156 81.6154 17.1103C81.2133 17.6049 80.6782 18 80.0133 18.2923C79.3484 18.5878 78.5443 18.7323 77.5976 18.7323H75.3497V24.3019H73.3804C73.2157 24.3019 73.0796 24.167 73.0796 23.9968V8.69165H77.319H77.3253ZM77.6008 16.5193C78.1643 16.5193 78.6392 16.4229 79.0223 16.2302C79.4054 16.0375 79.703 15.7901 79.9247 15.4882C80.1431 15.1863 80.2983 14.8747 80.3901 14.5535C80.4819 14.2323 80.5294 13.94 80.5294 13.6831C80.5294 13.3972 80.4819 13.0921 80.3901 12.7677C80.2983 12.4465 80.1463 12.1445 79.9342 11.8651C79.722 11.5857 79.4308 11.3576 79.0635 11.1777C78.6962 10.9979 78.2371 10.9079 77.6862 10.9079H75.3528V16.5225H77.6008V16.5193Z" fill="white"/>
<path d="M97.9112 8.99357V24.3051H95.9419C95.7773 24.3051 95.6411 24.1702 95.6411 24V17.5728H87.8399V24.3051H85.8706C85.706 24.3051 85.5698 24.1702 85.5698 24V8.69165H87.5391C87.7038 8.69165 87.8367 8.82655 87.8367 8.99357V15.379H95.638V8.68843H97.6073C97.7719 8.68843 97.9049 8.82334 97.9049 8.99036L97.9112 8.99357Z" fill="white"/>
<path d="M100.985 16.5193C100.985 15.4433 101.188 14.4251 101.59 13.4647C101.992 12.5043 102.556 11.6499 103.274 10.9047C103.996 10.1595 104.829 9.57494 105.776 9.15096C106.722 8.72698 107.739 8.51499 108.828 8.51499C109.917 8.51499 110.911 8.72698 111.861 9.15096C112.808 9.57494 113.65 10.1595 114.384 10.9047C115.119 11.6499 115.692 12.5043 116.1 13.4647C116.509 14.4251 116.714 15.4433 116.714 16.5193C116.714 17.5953 116.509 18.6552 116.1 19.6156C115.689 20.576 115.122 21.4208 114.394 22.1531C113.666 22.8854 112.823 23.454 111.87 23.8619C110.917 24.2698 109.901 24.4754 108.828 24.4754C107.754 24.4754 106.722 24.2762 105.776 23.8747C104.829 23.4732 103.996 22.9111 103.274 22.1852C102.553 21.4625 101.992 20.6146 101.59 19.6477C101.188 18.6809 100.985 17.637 100.985 16.5193ZM103.316 16.5193C103.316 17.3223 103.461 18.0707 103.749 18.7677C104.037 19.4647 104.44 20.0717 104.946 20.5953C105.456 21.1188 106.045 21.5268 106.716 21.8223C107.387 22.1178 108.112 22.2623 108.888 22.2623C109.664 22.2623 110.363 22.1146 111.028 21.8223C111.693 21.53 112.276 21.1188 112.776 20.5953C113.276 20.0717 113.669 19.4615 113.954 18.7677C114.235 18.0739 114.378 17.3223 114.378 16.5193C114.378 15.7163 114.232 14.9679 113.944 14.2709C113.653 13.5771 113.257 12.9636 112.757 12.4304C112.253 11.9004 111.668 11.4829 110.997 11.1842C110.325 10.8822 109.607 10.7313 108.844 10.7313C108.081 10.7313 107.324 10.8822 106.659 11.1842C105.994 11.4861 105.408 11.9004 104.899 12.4304C104.389 12.9604 103.996 13.5771 103.721 14.2805C103.445 14.9839 103.306 15.7291 103.306 16.5161L103.316 16.5193Z" fill="white"/>
<path d="M130.858 24.3051L127.223 18.4208C127.134 18.2762 127.179 18.0835 127.324 18C127.749 17.7495 128.106 17.4507 128.401 17.1039C128.809 16.6156 129.107 16.0728 129.29 15.4689C129.474 14.8651 129.566 14.258 129.566 13.6413C129.566 12.8383 129.427 12.1317 129.151 11.5214C128.876 10.9111 128.493 10.4004 128.005 9.98287C127.517 9.56852 126.932 9.24732 126.245 9.02569C125.558 8.80407 124.814 8.69165 124.009 8.69165H120.09C119.925 8.69165 119.789 8.82655 119.789 8.99679V24.0032C119.789 24.1702 119.922 24.3083 120.09 24.3083H122.059V19.0214C122.059 18.8544 122.192 18.7163 122.36 18.7163H124.307C124.377 18.7163 124.443 18.7163 124.51 18.7163C124.614 18.7163 124.715 18.7645 124.769 18.8544L128.138 24.1702C128.192 24.257 128.287 24.3116 128.391 24.3116H130.858V24.3051ZM122.059 11.2098C122.059 11.0428 122.192 10.9047 122.36 10.9047H124.393C124.931 10.9047 125.38 10.9979 125.751 11.1842C126.118 11.3704 126.413 11.6081 126.631 11.894C126.849 12.1799 127.005 12.4818 127.096 12.7966C127.188 13.1113 127.236 13.4133 127.236 13.6991C127.236 14.0011 127.188 14.3126 127.096 14.6338C127.005 14.955 126.849 15.257 126.631 15.5364C126.413 15.8158 126.109 16.0503 125.719 16.2366C125.33 16.4229 124.845 16.5161 124.266 16.5161H122.36C122.195 16.5161 122.059 16.3812 122.059 16.2109V11.2066V11.2098Z" fill="white"/>
<path d="M133.593 8.69165H143.408C143.573 8.69165 143.705 8.82655 143.705 8.99357V10.9079H135.86V15.3597H142.835V17.576H135.86V22.0921H144V24.3083H133.891C133.726 24.3083 133.59 24.1734 133.59 24.0032V8.69165H133.593Z" fill="white"/>
<path d="M9.4124 17.7495L10.7738 11.56C10.9068 10.9497 11.3785 10.4743 11.9801 10.3394L16.5994 9.30835L17.1313 6.89615L10.1311 8.46039C9.52955 8.59529 9.06096 9.07067 8.92799 9.67773L7.03467 18.2794L9.4124 17.7495Z" fill="url(#paint0_linear_21_95018)"/>
<path d="M6.20513 18.469L8.25359 9.15418C8.38657 8.5439 8.85831 8.06853 9.45987 7.93683L17.2896 6.1863L17.8215 3.77409L7.61404 6.05461C7.01248 6.18951 6.5439 6.66489 6.41093 7.27195L3.83057 18.9989L6.2083 18.469H6.20513Z" fill="url(#paint1_linear_21_95018)"/>
<path d="M19.3353 0.462724L15.9096 16.028C15.7766 16.6383 15.3049 17.1137 14.7033 17.2486L2.84002 19.8985L5.73382 6.74217C5.8668 6.13189 6.33854 5.65973 6.93693 5.52482L17.9739 3.05801L18.5058 0.645807L5.08794 3.64581C4.48638 3.78071 4.0178 4.25609 3.88482 4.86315L0.00636714 22.5002C-0.0284598 22.6608 0.110848 22.8021 0.269152 22.7668L16.6916 19.0987C17.2077 18.9831 17.613 18.5751 17.7301 18.0484L21.6371 0.273216C21.6719 0.112617 21.5326 -0.0287111 21.3743 0.00662077L19.3322 0.462724H19.3353Z" fill="url(#paint2_linear_21_95018)"/>
<path d="M21.8551 2.87152L18.4294 18.4368C18.2964 19.0471 17.8247 19.5225 17.2231 19.6574L2.97889 22.8405L2.52297 24.909C2.48814 25.0696 2.62745 25.2109 2.78575 25.1756L19.2083 21.5075C19.7243 21.3919 20.1296 20.9839 20.2467 20.4572L24.1568 2.68201C24.1917 2.52141 24.0524 2.38009 23.8941 2.41542L21.8519 2.87152H21.8551Z" fill="url(#paint3_linear_21_95018)"/>
<path d="M24.3756 5.28052L20.9499 20.8458C20.8169 21.4561 20.3452 21.9315 19.7436 22.0664L5.49939 25.2495L5.04348 27.318C5.00865 27.4786 5.14796 27.6199 5.30626 27.5846L21.7288 23.9165C22.2448 23.8009 22.6501 23.3929 22.7672 22.8662L26.6774 5.09101C26.7122 4.93041 26.5729 4.78908 26.4146 4.82442L24.3724 5.28052H24.3756Z" fill="url(#paint4_linear_21_95018)"/>
<path d="M26.8956 7.68951L23.4699 23.2548C23.3369 23.8651 22.8652 24.3405 22.2636 24.4754L8.01941 27.6585L7.5635 29.727C7.52867 29.8876 7.66798 30.0289 7.82628 29.9936L24.2488 26.3255C24.7648 26.2099 25.1701 25.8019 25.2873 25.2752L29.1974 7.5C29.2322 7.3394 29.0929 7.19808 28.9346 7.23341L26.8925 7.68951H26.8956Z" fill="url(#paint5_linear_21_95018)"/>
</g>
<defs>
<linearGradient id="paint0_linear_21_95018" x1="6.08786" y1="13.9317" x2="18.0913" y2="11.326" gradientUnits="userSpaceOnUse">
<stop stop-color="#1F6FB5"/>
<stop offset="1" stop-color="#47B76E"/>
</linearGradient>
<linearGradient id="paint1_linear_21_95018" x1="2.57365" y1="13.2303" x2="19.0942" y2="9.64396" gradientUnits="userSpaceOnUse">
<stop stop-color="#1F6FB5"/>
<stop offset="1" stop-color="#47B76E"/>
</linearGradient>
<linearGradient id="paint2_linear_21_95018" x1="-1.81345" y1="14.2108" x2="23.4937" y2="8.71701" gradientUnits="userSpaceOnUse">
<stop stop-color="#2973C3"/>
<stop offset="1" stop-color="#37AD68"/>
</linearGradient>
<linearGradient id="paint3_linear_21_95018" x1="0.70636" y1="16.6207" x2="26.0135" y2="11.127" gradientUnits="userSpaceOnUse">
<stop stop-color="#1F6FB5"/>
<stop offset="1" stop-color="#47B76E"/>
</linearGradient>
<linearGradient id="paint4_linear_21_95018" x1="3.22623" y1="19.0277" x2="28.5334" y2="13.534" gradientUnits="userSpaceOnUse">
<stop stop-color="#1F6FB5"/>
<stop offset="1" stop-color="#47B76E"/>
</linearGradient>
<linearGradient id="paint5_linear_21_95018" x1="5.74629" y1="21.4378" x2="31.0535" y2="15.9441" gradientUnits="userSpaceOnUse">
<stop stop-color="#1F6FB5"/>
<stop offset="1" stop-color="#47B76E"/>
</linearGradient>
<clipPath id="clip0_21_95018">
<rect width="144" height="30" fill="white"/>
</clipPath>
</defs>
</svg>
