<svg width="26" height="26" viewBox="0 0 26 26" fill="none" xmlns="http://www.w3.org/2000/svg">
<path d="M8.15669 15.3817L9.33657 10.0175C9.45182 9.48865 9.86066 9.07666 10.382 8.95974L14.3854 8.06618L14.8464 5.97562L8.77956 7.33128C8.25822 7.4482 7.85212 7.86018 7.73687 8.3863L6.09601 15.841L8.15669 15.3817Z" fill="url(#paint0_linear_4024_24722)"/>
<path d="M5.37709 16.0053L7.1524 7.93255C7.26764 7.40364 7.67649 6.99166 8.19783 6.87752L14.9835 5.36041L15.4445 3.26985L6.59813 5.24628C6.07679 5.36319 5.67069 5.77518 5.55544 6.3013L3.31915 16.4646L5.37983 16.0053H5.37709Z" fill="url(#paint1_linear_4024_24722)"/>
<path d="M16.7563 0.400024L13.7873 13.8898C13.6721 14.4187 13.2633 14.8307 12.7419 14.9476L2.46047 17.2442L4.96841 5.84215C5.08366 5.31325 5.4925 4.90405 6.0111 4.78713L15.5764 2.64925L16.0374 0.558695L4.40865 3.15867C3.88731 3.27558 3.48121 3.68757 3.36597 4.21369L0.00467179 19.499C-0.0255113 19.6381 0.0952209 19.7606 0.232417 19.73L14.4651 16.551C14.9124 16.4508 15.2636 16.0973 15.3651 15.6408L18.7511 0.235786C18.7813 0.0966015 18.6605 -0.0258811 18.5233 0.00473952L16.7535 0.400024H16.7563Z" fill="url(#paint2_linear_4024_24722)"/>
<path d="M18.9403 2.48764L15.9713 15.9774C15.8561 16.5063 15.4472 16.9183 14.9259 17.0352L2.58104 19.7939L2.18591 21.5866C2.15573 21.7258 2.27646 21.8482 2.41366 21.8176L16.6463 18.6386C17.0936 18.5384 17.4448 18.1849 17.5463 17.7284L20.9351 2.3234C20.9653 2.18422 20.8445 2.06174 20.7073 2.09236L18.9375 2.48764H18.9403Z" fill="url(#paint3_linear_4024_24722)"/>
<path d="M21.1245 4.57536L18.1555 18.0652C18.0403 18.5941 17.6315 19.006 17.1101 19.123L4.76524 21.8816L4.37012 23.6743C4.33994 23.8135 4.46067 23.936 4.59787 23.9053L18.8305 20.7264C19.2778 20.6262 19.629 20.2726 19.7305 19.8161L23.1193 4.41112C23.1495 4.27194 23.0287 4.14946 22.8915 4.18008L21.1217 4.57536H21.1245Z" fill="url(#paint4_linear_4024_24722)"/>
<path d="M23.3084 6.66319L20.3395 20.153C20.2243 20.6819 19.8154 21.0939 19.2941 21.2108L6.94924 23.9694L6.55411 25.7621C6.52393 25.9013 6.64466 26.0238 6.78186 25.9932L21.0145 22.8142C21.4618 22.714 21.813 22.3605 21.9145 21.9039L25.3033 6.49895C25.3335 6.35977 25.2127 6.23728 25.0755 6.26791L23.3057 6.66319H23.3084Z" fill="url(#paint5_linear_4024_24722)"/>
<defs>
<linearGradient id="paint0_linear_4024_24722" x1="-2.37324" y1="16.0684" x2="27.4397" y2="8.9654" gradientUnits="userSpaceOnUse">
<stop stop-color="#1F6FB5"/>
<stop offset="1" stop-color="#47B76E"/>
</linearGradient>
<linearGradient id="paint1_linear_4024_24722" x1="-2.2736" y1="16.1474" x2="27.4467" y2="9.31294" gradientUnits="userSpaceOnUse">
<stop stop-color="#1F6FB5"/>
<stop offset="1" stop-color="#47B76E"/>
</linearGradient>
<linearGradient id="paint2_linear_4024_24722" x1="-2.12182" y1="16.2232" x2="27.4075" y2="9.65729" gradientUnits="userSpaceOnUse">
<stop stop-color="#2973C3"/>
<stop offset="1" stop-color="#37AD68"/>
</linearGradient>
<linearGradient id="paint3_linear_4024_24722" x1="-2.11776" y1="16.2245" x2="27.4077" y2="9.66043" gradientUnits="userSpaceOnUse">
<stop stop-color="#1F6FB5"/>
<stop offset="1" stop-color="#47B76E"/>
</linearGradient>
<linearGradient id="paint4_linear_4024_24722" x1="-2.11851" y1="16.2222" x2="27.4069" y2="9.65815" gradientUnits="userSpaceOnUse">
<stop stop-color="#1F6FB5"/>
<stop offset="1" stop-color="#47B76E"/>
</linearGradient>
<linearGradient id="paint5_linear_4024_24722" x1="4.97921" y1="18.5783" x2="26.9119" y2="13.8171" gradientUnits="userSpaceOnUse">
<stop stop-color="#1F6FB5"/>
<stop offset="1" stop-color="#47B76E"/>
</linearGradient>
</defs>
</svg>
