<svg width="1193" height="170" viewBox="0 0 1170 170" fill="none" xmlns="http://www.w3.org/2000/svg">
<rect width="1159" height="27" transform="translate(0 1.77002)" fill="#F8F9FC"/>
<line x1="1158" y1="28.27" y2="28.27" stroke="#D7DAE3"/>
<g clip-path="url(#clip0_4449_73204)">
<path d="M333.646 21.2936L334.5 22.1471V20.94V7.77002V7.27002H334H318H317.5V7.77002V19.77V20.27H318H332.623L333.646 21.2936ZM332.354 21.4165L332.207 21.27H332H318C317.176 21.27 316.5 20.5939 316.5 19.77V7.77002C316.5 6.94616 317.176 6.27002 318 6.27002H334C334.824 6.27002 335.5 6.94616 335.5 7.77002V24.5629L332.354 21.4165Z" fill="white" stroke="#15808C"/>
</g>
<g clip-path="url(#clip1_4449_73204)">
<path d="M229.646 21.2936L230.5 22.1471V20.94V7.77002V7.27002H230H214H213.5V7.77002V19.77V20.27H214H228.623L229.646 21.2936ZM228.354 21.4165L228.207 21.27H228H214C213.176 21.27 212.5 20.5939 212.5 19.77V7.77002C212.5 6.94616 213.176 6.27002 214 6.27002H230C230.824 6.27002 231.5 6.94616 231.5 7.77002V24.5629L228.354 21.4165Z" fill="white" stroke="#15808C"/>
</g>
<g clip-path="url(#clip2_4449_73204)">
<path d="M354.646 21.2936L355.5 22.1471V20.94V7.77002V7.27002H355H339H338.5V7.77002V19.77V20.27H339H353.623L354.646 21.2936ZM353.354 21.4165L353.207 21.27H353H339C338.176 21.27 337.5 20.5939 337.5 19.77V7.77002C337.5 6.94616 338.176 6.27002 339 6.27002H355C355.824 6.27002 356.5 6.94616 356.5 7.77002V24.5629L353.354 21.4165Z" fill="white" stroke="#15808C"/>
</g>
<g clip-path="url(#clip3_4449_73204)">
<path d="M148.646 21.2936L149.5 22.1471V20.94V7.77002V7.27002H149H133H132.5V7.77002V19.77V20.27H133H147.623L148.646 21.2936ZM147.354 21.4165L147.207 21.27H147H133C132.176 21.27 131.5 20.5939 131.5 19.77V7.77002C131.5 6.94616 132.176 6.27002 133 6.27002H149C149.824 6.27002 150.5 6.94616 150.5 7.77002V24.5629L147.354 21.4165Z" fill="white" stroke="#15808C"/>
</g>
<g clip-path="url(#clip4_4449_73204)">
<path d="M37.6464 21.2936L38.5 22.1471V20.94V7.77002V7.27002H38H22H21.5V7.77002V19.77V20.27H22H36.6229L37.6464 21.2936ZM36.3536 21.4165L36.2071 21.27H36H22C21.1761 21.27 20.5 20.5939 20.5 19.77V7.77002C20.5 6.94616 21.1761 6.27002 22 6.27002H38C38.8239 6.27002 39.5 6.94616 39.5 7.77002V24.5629L36.3536 21.4165Z" fill="white" stroke="#15808C"/>
</g>
<g clip-path="url(#clip5_4449_73204)">
<rect width="1159" height="12" transform="translate(0 28.77)" fill="white"/>
<rect x="141" y="28.77" width="285" height="12" fill="#2263D5"/>
<path d="M146.667 38.6034C146.438 38.6034 146.241 38.5218 146.078 38.3586C145.915 38.1954 145.833 37.9992 145.833 37.77V32.77C145.833 32.5409 145.915 32.3447 146.078 32.1815C146.241 32.0183 146.438 31.9367 146.667 31.9367H151.667C151.896 31.9367 152.092 32.0183 152.255 32.1815C152.418 32.3447 152.5 32.5409 152.5 32.77V34.645L154.167 32.9784V37.5617L152.5 35.895V37.77C152.5 37.9992 152.418 38.1954 152.255 38.3586C152.092 38.5218 151.896 38.6034 151.667 38.6034H146.667ZM146.667 37.77H151.667V32.77H146.667V37.77Z" fill="white"/>
<path d="M163.5 37.8496C163.072 37.8496 162.707 37.7331 162.406 37.5001C162.105 37.2653 161.875 36.9253 161.716 36.4802C161.557 36.0333 161.477 35.4935 161.477 34.8609C161.477 34.2321 161.557 33.6952 161.716 33.2501C161.877 32.8032 162.108 32.4623 162.409 32.2274C162.712 31.9907 163.076 31.8723 163.5 31.8723C163.924 31.8723 164.287 31.9907 164.588 32.2274C164.891 32.4623 165.122 32.8032 165.281 33.2501C165.442 33.6952 165.523 34.2321 165.523 34.8609C165.523 35.4935 165.443 36.0333 165.284 36.4802C165.125 36.9253 164.895 37.2653 164.594 37.5001C164.293 37.7331 163.928 37.8496 163.5 37.8496ZM163.5 37.2246C163.924 37.2246 164.254 37.02 164.489 36.6109C164.723 36.2018 164.841 35.6185 164.841 34.8609C164.841 34.3571 164.787 33.9282 164.679 33.574C164.573 33.2198 164.42 32.9499 164.219 32.7643C164.02 32.5787 163.78 32.4859 163.5 32.4859C163.08 32.4859 162.751 32.6933 162.514 33.1081C162.277 33.521 162.159 34.1052 162.159 34.8609C162.159 35.3647 162.212 35.7927 162.318 36.145C162.424 36.4973 162.577 36.7653 162.776 36.949C162.976 37.1327 163.218 37.2246 163.5 37.2246ZM166.602 37.77V37.2587L168.523 35.1564C168.748 34.9102 168.934 34.6962 169.08 34.5143C169.225 34.3306 169.333 34.1583 169.403 33.9973C169.475 33.8344 169.511 33.664 169.511 33.4859C169.511 33.2814 169.462 33.1043 169.364 32.9547C169.267 32.8051 169.134 32.6895 168.966 32.6081C168.797 32.5266 168.608 32.4859 168.398 32.4859C168.174 32.4859 167.979 32.5323 167.812 32.6251C167.648 32.716 167.52 32.8439 167.429 33.0087C167.34 33.1734 167.295 33.3666 167.295 33.5882H166.625C166.625 33.2473 166.704 32.948 166.861 32.6905C167.018 32.4329 167.232 32.2321 167.503 32.0882C167.776 31.9443 168.081 31.8723 168.42 31.8723C168.761 31.8723 169.063 31.9443 169.327 32.0882C169.59 32.2321 169.796 32.4263 169.946 32.6706C170.096 32.9149 170.17 33.1867 170.17 33.4859C170.17 33.6999 170.132 33.9092 170.054 34.1138C169.978 34.3164 169.846 34.5427 169.656 34.7927C169.469 35.0409 169.208 35.3439 168.875 35.7018L167.568 37.0996V37.145H170.273V37.77H166.602ZM171.946 37.0257C171.806 37.0257 171.686 36.9755 171.585 36.8751C171.485 36.7748 171.435 36.6545 171.435 36.5143C171.435 36.3742 171.485 36.2539 171.585 36.1535C171.686 36.0532 171.806 36.003 171.946 36.003C172.086 36.003 172.206 36.0532 172.307 36.1535C172.407 36.2539 172.457 36.3742 172.457 36.5143C172.457 36.6071 172.434 36.6924 172.386 36.77C172.341 36.8477 172.279 36.9102 172.202 36.9575C172.126 37.003 172.041 37.0257 171.946 37.0257ZM171.946 34.0825C171.806 34.0825 171.686 34.0323 171.585 33.932C171.485 33.8316 171.435 33.7113 171.435 33.5712C171.435 33.431 171.485 33.3107 171.585 33.2104C171.686 33.11 171.806 33.0598 171.946 33.0598C172.086 33.0598 172.206 33.11 172.307 33.2104C172.407 33.3107 172.457 33.431 172.457 33.5712C172.457 33.664 172.434 33.7492 172.386 33.8268C172.341 33.9045 172.279 33.967 172.202 34.0143C172.126 34.0598 172.041 34.0825 171.946 34.0825ZM175.547 37.8496C175.119 37.8496 174.754 37.7331 174.453 37.5001C174.152 37.2653 173.922 36.9253 173.763 36.4802C173.604 36.0333 173.524 35.4935 173.524 34.8609C173.524 34.2321 173.604 33.6952 173.763 33.2501C173.924 32.8032 174.155 32.4623 174.456 32.2274C174.759 31.9907 175.123 31.8723 175.547 31.8723C175.971 31.8723 176.334 31.9907 176.635 32.2274C176.938 32.4623 177.169 32.8032 177.328 33.2501C177.489 33.6952 177.57 34.2321 177.57 34.8609C177.57 35.4935 177.49 36.0333 177.331 36.4802C177.172 36.9253 176.942 37.2653 176.641 37.5001C176.339 37.7331 175.975 37.8496 175.547 37.8496ZM175.547 37.2246C175.971 37.2246 176.301 37.02 176.536 36.6109C176.77 36.2018 176.888 35.6185 176.888 34.8609C176.888 34.3571 176.834 33.9282 176.726 33.574C176.62 33.2198 176.466 32.9499 176.266 32.7643C176.067 32.5787 175.827 32.4859 175.547 32.4859C175.126 32.4859 174.798 32.6933 174.561 33.1081C174.324 33.521 174.206 34.1052 174.206 34.8609C174.206 35.3647 174.259 35.7927 174.365 36.145C174.471 36.4973 174.624 36.7653 174.822 36.949C175.023 37.1327 175.265 37.2246 175.547 37.2246ZM180.695 31.9518V37.77H179.99V32.6905H179.956L178.536 33.6337V32.9177L179.99 31.9518H180.695ZM184.879 34.5484V35.1734H182.334V34.5484H184.879ZM187.945 37.8496C187.517 37.8496 187.153 37.7331 186.852 37.5001C186.55 37.2653 186.32 36.9253 186.161 36.4802C186.002 36.0333 185.923 35.4935 185.923 34.8609C185.923 34.2321 186.002 33.6952 186.161 33.2501C186.322 32.8032 186.553 32.4623 186.854 32.2274C187.157 31.9907 187.521 31.8723 187.945 31.8723C188.37 31.8723 188.732 31.9907 189.033 32.2274C189.336 32.4623 189.567 32.8032 189.727 33.2501C189.888 33.6952 189.968 34.2321 189.968 34.8609C189.968 35.4935 189.888 36.0333 189.729 36.4802C189.57 36.9253 189.34 37.2653 189.039 37.5001C188.738 37.7331 188.373 37.8496 187.945 37.8496ZM187.945 37.2246C188.37 37.2246 188.699 37.02 188.934 36.6109C189.169 36.2018 189.286 35.6185 189.286 34.8609C189.286 34.3571 189.232 33.9282 189.124 33.574C189.018 33.2198 188.865 32.9499 188.664 32.7643C188.465 32.5787 188.226 32.4859 187.945 32.4859C187.525 32.4859 187.196 32.6933 186.96 33.1081C186.723 33.521 186.604 34.1052 186.604 34.8609C186.604 35.3647 186.657 35.7927 186.763 36.145C186.87 36.4973 187.022 36.7653 187.221 36.949C187.422 37.1327 187.663 37.2246 187.945 37.2246ZM190.911 36.5768V35.9973L193.468 31.9518H193.888V32.8496H193.604L191.673 35.9064V35.9518H195.116V36.5768H190.911ZM193.65 37.77V36.4007V36.1308V31.9518H194.32V37.77H193.65ZM196.68 37.0257C196.54 37.0257 196.42 36.9755 196.32 36.8751C196.219 36.7748 196.169 36.6545 196.169 36.5143C196.169 36.3742 196.219 36.2539 196.32 36.1535C196.42 36.0532 196.54 36.003 196.68 36.003C196.821 36.003 196.941 36.0532 197.041 36.1535C197.142 36.2539 197.192 36.3742 197.192 36.5143C197.192 36.6071 197.168 36.6924 197.121 36.77C197.075 36.8477 197.014 36.9102 196.936 36.9575C196.86 37.003 196.775 37.0257 196.68 37.0257ZM196.68 34.0825C196.54 34.0825 196.42 34.0323 196.32 33.932C196.219 33.8316 196.169 33.7113 196.169 33.5712C196.169 33.431 196.219 33.3107 196.32 33.2104C196.42 33.11 196.54 33.0598 196.68 33.0598C196.821 33.0598 196.941 33.11 197.041 33.2104C197.142 33.3107 197.192 33.431 197.192 33.5712C197.192 33.664 197.168 33.7492 197.121 33.8268C197.075 33.9045 197.014 33.967 196.936 34.0143C196.86 34.0598 196.775 34.0825 196.68 34.0825ZM200.349 37.8496C199.974 37.8496 199.64 37.7852 199.347 37.6564C199.055 37.5276 198.823 37.3486 198.651 37.1195C198.48 36.8884 198.387 36.6204 198.372 36.3155H199.088C199.103 36.503 199.168 36.6649 199.281 36.8013C199.395 36.9357 199.544 37.0399 199.727 37.1138C199.911 37.1876 200.115 37.2246 200.338 37.2246C200.588 37.2246 200.81 37.181 201.003 37.0939C201.196 37.0068 201.348 36.8855 201.457 36.7302C201.567 36.5749 201.622 36.395 201.622 36.1905C201.622 35.9765 201.569 35.788 201.463 35.6251C201.357 35.4604 201.202 35.3316 200.997 35.2388C200.793 35.146 200.543 35.0996 200.247 35.0996H199.781V34.4746H200.247C200.478 34.4746 200.681 34.4329 200.855 34.3496C201.031 34.2662 201.169 34.1488 201.267 33.9973C201.367 33.8458 201.418 33.6677 201.418 33.4632C201.418 33.2662 201.374 33.0948 201.287 32.949C201.2 32.8032 201.077 32.6895 200.918 32.6081C200.76 32.5266 200.575 32.4859 200.361 32.4859C200.16 32.4859 199.971 32.5229 199.793 32.5967C199.616 32.6687 199.473 32.7738 199.361 32.9121C199.249 33.0484 199.188 33.2132 199.179 33.4064H198.497C198.509 33.1015 198.6 32.8344 198.773 32.6052C198.945 32.3742 199.17 32.1943 199.449 32.0655C199.729 31.9367 200.037 31.8723 200.372 31.8723C200.732 31.8723 201.041 31.9452 201.298 32.091C201.556 32.235 201.754 32.4253 201.892 32.6621C202.03 32.8988 202.099 33.1545 202.099 33.4291C202.099 33.7568 202.013 34.0361 201.841 34.2672C201.67 34.4982 201.438 34.6583 201.145 34.7473V34.7927C201.512 34.8534 201.799 35.0096 202.006 35.2615C202.212 35.5115 202.315 35.8212 202.315 36.1905C202.315 36.5068 202.229 36.7909 202.057 37.0427C201.886 37.2927 201.653 37.4897 201.358 37.6337C201.063 37.7776 200.726 37.8496 200.349 37.8496ZM203.477 37.77V37.2587L205.398 35.1564C205.623 34.9102 205.809 34.6962 205.955 34.5143C206.1 34.3306 206.208 34.1583 206.278 33.9973C206.35 33.8344 206.386 33.664 206.386 33.4859C206.386 33.2814 206.337 33.1043 206.239 32.9547C206.142 32.8051 206.009 32.6895 205.841 32.6081C205.672 32.5266 205.483 32.4859 205.273 32.4859C205.049 32.4859 204.854 32.5323 204.688 32.6251C204.523 32.716 204.395 32.8439 204.304 33.0087C204.215 33.1734 204.17 33.3666 204.17 33.5882H203.5C203.5 33.2473 203.579 32.948 203.736 32.6905C203.893 32.4329 204.107 32.2321 204.378 32.0882C204.651 31.9443 204.956 31.8723 205.295 31.8723C205.636 31.8723 205.938 31.9443 206.202 32.0882C206.465 32.2321 206.671 32.4263 206.821 32.6706C206.971 32.9149 207.045 33.1867 207.045 33.4859C207.045 33.6999 207.007 33.9092 206.929 34.1138C206.853 34.3164 206.721 34.5427 206.531 34.7927C206.344 35.0409 206.083 35.3439 205.75 35.7018L204.443 37.0996V37.145H207.148V37.77H203.477Z" fill="white"/>
<rect x="546" y="28.77" width="54" height="12" fill="#2263D5"/>
<path d="M551.667 38.6034C551.437 38.6034 551.241 38.5218 551.078 38.3586C550.915 38.1954 550.833 37.9992 550.833 37.77V32.77C550.833 32.5409 550.915 32.3447 551.078 32.1815C551.241 32.0183 551.437 31.9367 551.667 31.9367H556.667C556.896 31.9367 557.092 32.0183 557.255 32.1815C557.418 32.3447 557.5 32.5409 557.5 32.77V34.645L559.167 32.9784V37.5617L557.5 35.895V37.77C557.5 37.9992 557.418 38.1954 557.255 38.3586C557.092 38.5218 556.896 38.6034 556.667 38.6034H551.667ZM551.667 37.77H556.667V32.77H551.667V37.77Z" fill="white"/>
<path d="M568.648 31.9518V37.77H567.943V32.6905H567.909L566.489 33.6337V32.9177L567.943 31.9518H568.648ZM570.321 37.77V37.2587L572.241 35.1564C572.467 34.9102 572.652 34.6962 572.798 34.5143C572.944 34.3306 573.052 34.1583 573.122 33.9973C573.194 33.8344 573.23 33.664 573.23 33.4859C573.23 33.2814 573.181 33.1043 573.082 32.9547C572.986 32.8051 572.853 32.6895 572.685 32.6081C572.516 32.5266 572.327 32.4859 572.116 32.4859C571.893 32.4859 571.698 32.5323 571.531 32.6251C571.366 32.716 571.239 32.8439 571.148 33.0087C571.059 33.1734 571.014 33.3666 571.014 33.5882H570.344C570.344 33.2473 570.422 32.948 570.58 32.6905C570.737 32.4329 570.951 32.2321 571.222 32.0882C571.494 31.9443 571.8 31.8723 572.139 31.8723C572.48 31.8723 572.782 31.9443 573.045 32.0882C573.309 32.2321 573.515 32.4263 573.665 32.6706C573.814 32.9149 573.889 33.1867 573.889 33.4859C573.889 33.6999 573.85 33.9092 573.773 34.1138C573.697 34.3164 573.564 34.5427 573.375 34.7927C573.188 35.0409 572.927 35.3439 572.594 35.7018L571.287 37.0996V37.145H573.991V37.77H570.321ZM575.665 37.0257C575.525 37.0257 575.404 36.9755 575.304 36.8751C575.204 36.7748 575.153 36.6545 575.153 36.5143C575.153 36.3742 575.204 36.2539 575.304 36.1535C575.404 36.0532 575.525 36.003 575.665 36.003C575.805 36.003 575.925 36.0532 576.026 36.1535C576.126 36.2539 576.176 36.3742 576.176 36.5143C576.176 36.6071 576.152 36.6924 576.105 36.77C576.06 36.8477 575.998 36.9102 575.92 36.9575C575.845 37.003 575.759 37.0257 575.665 37.0257ZM575.665 34.0825C575.525 34.0825 575.404 34.0323 575.304 33.932C575.204 33.8316 575.153 33.7113 575.153 33.5712C575.153 33.431 575.204 33.3107 575.304 33.2104C575.404 33.11 575.525 33.0598 575.665 33.0598C575.805 33.0598 575.925 33.11 576.026 33.2104C576.126 33.3107 576.176 33.431 576.176 33.5712C576.176 33.664 576.152 33.7492 576.105 33.8268C576.06 33.9045 575.998 33.967 575.92 34.0143C575.845 34.0598 575.759 34.0825 575.665 34.0825ZM577.368 37.77V37.2587L579.288 35.1564C579.514 34.9102 579.699 34.6962 579.845 34.5143C579.991 34.3306 580.099 34.1583 580.169 33.9973C580.241 33.8344 580.277 33.664 580.277 33.4859C580.277 33.2814 580.228 33.1043 580.129 32.9547C580.033 32.8051 579.9 32.6895 579.732 32.6081C579.563 32.5266 579.374 32.4859 579.163 32.4859C578.94 32.4859 578.745 32.5323 578.578 32.6251C578.413 32.716 578.286 32.8439 578.195 33.0087C578.106 33.1734 578.061 33.3666 578.061 33.5882H577.391C577.391 33.2473 577.469 32.948 577.626 32.6905C577.784 32.4329 577.998 32.2321 578.268 32.0882C578.541 31.9443 578.847 31.8723 579.186 31.8723C579.527 31.8723 579.829 31.9443 580.092 32.0882C580.356 32.2321 580.562 32.4263 580.712 32.6706C580.861 32.9149 580.936 33.1867 580.936 33.4859C580.936 33.6999 580.897 33.9092 580.82 34.1138C580.744 34.3164 580.611 34.5427 580.422 34.7927C580.234 35.0409 579.974 35.3439 579.641 35.7018L578.334 37.0996V37.145H581.038V37.77H577.368ZM582.212 37.77V37.2587L584.132 35.1564C584.357 34.9102 584.543 34.6962 584.689 34.5143C584.835 34.3306 584.943 34.1583 585.013 33.9973C585.085 33.8344 585.121 33.664 585.121 33.4859C585.121 33.2814 585.071 33.1043 584.973 32.9547C584.876 32.8051 584.744 32.6895 584.575 32.6081C584.407 32.5266 584.217 32.4859 584.007 32.4859C583.784 32.4859 583.589 32.5323 583.422 32.6251C583.257 32.716 583.129 32.8439 583.038 33.0087C582.949 33.1734 582.905 33.3666 582.905 33.5882H582.234C582.234 33.2473 582.313 32.948 582.47 32.6905C582.627 32.4329 582.841 32.2321 583.112 32.0882C583.385 31.9443 583.691 31.8723 584.03 31.8723C584.371 31.8723 584.673 31.9443 584.936 32.0882C585.199 32.2321 585.406 32.4263 585.555 32.6706C585.705 32.9149 585.78 33.1867 585.78 33.4859C585.78 33.6999 585.741 33.9092 585.663 34.1138C585.588 34.3164 585.455 34.5427 585.266 34.7927C585.078 35.0409 584.818 35.3439 584.484 35.7018L583.178 37.0996V37.145H585.882V37.77H582.212ZM587.555 37.8155C587.415 37.8155 587.295 37.7653 587.195 37.6649C587.094 37.5645 587.044 37.4443 587.044 37.3041C587.044 37.164 587.094 37.0437 587.195 36.9433C587.295 36.8429 587.415 36.7927 587.555 36.7927C587.696 36.7927 587.816 36.8429 587.916 36.9433C588.017 37.0437 588.067 37.164 588.067 37.3041C588.067 37.3969 588.043 37.4821 587.996 37.5598C587.95 37.6374 587.889 37.6999 587.811 37.7473C587.735 37.7927 587.65 37.8155 587.555 37.8155ZM589.737 37.8155C589.597 37.8155 589.477 37.7653 589.376 37.6649C589.276 37.5645 589.226 37.4443 589.226 37.3041C589.226 37.164 589.276 37.0437 589.376 36.9433C589.477 36.8429 589.597 36.7927 589.737 36.7927C589.877 36.7927 589.998 36.8429 590.098 36.9433C590.198 37.0437 590.249 37.164 590.249 37.3041C590.249 37.3969 590.225 37.4821 590.178 37.5598C590.132 37.6374 590.071 37.6999 589.993 37.7473C589.917 37.7927 589.832 37.8155 589.737 37.8155ZM591.919 37.8155C591.779 37.8155 591.659 37.7653 591.558 37.6649C591.458 37.5645 591.408 37.4443 591.408 37.3041C591.408 37.164 591.458 37.0437 591.558 36.9433C591.659 36.8429 591.779 36.7927 591.919 36.7927C592.059 36.7927 592.179 36.8429 592.28 36.9433C592.38 37.0437 592.43 37.164 592.43 37.3041C592.43 37.3969 592.407 37.4821 592.359 37.5598C592.314 37.6374 592.252 37.6999 592.175 37.7473C592.099 37.7927 592.014 37.8155 591.919 37.8155Z" fill="white"/>
<rect x="487" y="28.77" width="18" height="12" fill="#2263D5"/>
<path d="M492.667 38.1034C492.438 38.1034 492.241 38.0218 492.078 37.8586C491.915 37.6954 491.833 37.4992 491.833 37.27V32.27C491.833 32.0409 491.915 31.8447 492.078 31.6815C492.241 31.5183 492.438 31.4367 492.667 31.4367H497.667C497.896 31.4367 498.092 31.5183 498.255 31.6815C498.418 31.8447 498.5 32.0409 498.5 32.27V34.145L500.167 32.4784V37.0617L498.5 35.395V37.27C498.5 37.4992 498.418 37.6954 498.255 37.8586C498.092 38.0218 497.896 38.1034 497.667 38.1034H492.667ZM492.667 37.27H497.667V32.27H492.667V37.27Z" fill="white"/>
</g>
<mask id="path-15-inside-1_4449_73204" fill="white">
<path d="M0 40.77H1159V80.77H0V40.77Z"/>
</mask>
<path d="M0 40.77H1159V80.77H0V40.77Z" fill="white"/>
<path d="M0 41.77H1159V39.77H0V41.77ZM1159 79.77H0V81.77H1159V79.77Z" fill="#424242" mask="url(#path-15-inside-1_4449_73204)"/>
<rect x="310" y="57.4858" width="2.55202" height="6.06105" rx="1.27601" fill="#424242"/>
<rect x="314.147" y="50.7868" width="2.55202" height="19.4592" rx="1.27601" fill="#424242"/>
<rect x="318.294" y="45.3638" width="2.55202" height="30.3052" rx="1.27601" fill="#424242"/>
<rect x="322.441" y="50.7868" width="2.55202" height="19.4592" rx="1.27601" fill="#424242"/>
<rect x="326.588" y="58.1238" width="2.55202" height="4.78504" rx="1.27601" fill="#424242"/>
<rect x="330.735" y="50.7868" width="2.55202" height="19.4592" rx="1.27601" fill="#424242"/>
<rect x="334.882" y="45.3638" width="2.55202" height="30.3052" rx="1.27601" fill="#424242"/>
<rect x="339.029" y="50.7868" width="2.55202" height="19.4592" rx="1.27601" fill="#424242"/>
<rect x="343.176" y="57.4858" width="2.55202" height="6.06105" rx="1.27601" fill="#424242"/>
<rect x="347.323" y="53.9768" width="2.55202" height="13.0791" rx="1.27601" fill="#424242"/>
<rect x="351.47" y="47.9158" width="2.55202" height="25.2012" rx="1.27601" fill="#424242"/>
<rect x="355.617" y="58.7619" width="2.55202" height="3.50903" rx="1.27601" fill="#424242"/>
<line x1="391.999" y1="57.9117" x2="40.0003" y2="58.8853" stroke="#424242" stroke-width="0.258131"/>
<line x1="1180" y1="57.8991" x2="391" y2="57.8991" stroke="#8B8BA0" stroke-width="0.258131"/>
<rect x="728.991" y="55.4025" width="2.5735" height="4.82534" rx="1.28675" transform="rotate(-0.144322 728.991 55.4025)" fill="#D7DAE3"/>
<rect x="733.163" y="51.5326" width="2.5735" height="10.9374" rx="1.28675" transform="rotate(-0.144322 733.163 51.5326)" fill="#D7DAE3"/>
<rect x="737.341" y="49.9125" width="2.5735" height="12.5459" rx="1.28675" transform="rotate(-0.144322 737.341 49.9125)" fill="#D7DAE3"/>
<rect x="741.523" y="49.902" width="2.5735" height="15.7628" rx="1.28675" transform="rotate(-0.144322 741.523 49.902)" fill="#D7DAE3"/>
<rect x="745.711" y="52.1456" width="2.5735" height="11.2591" rx="1.28675" transform="rotate(-0.144322 745.711 52.1456)" fill="#D7DAE3"/>
<rect x="749.892" y="52.135" width="2.5735" height="11.2591" rx="1.28675" transform="rotate(-0.144322 749.892 52.135)" fill="#D7DAE3"/>
<rect x="754.083" y="55.3393" width="2.5735" height="4.82534" rx="1.28675" transform="rotate(-0.144322 754.083 55.3393)" fill="#D7DAE3"/>
<rect x="758.251" y="49.8599" width="2.5735" height="11.5808" rx="1.28675" transform="rotate(-0.144322 758.251 49.8599)" fill="#D7DAE3"/>
<rect x="762.443" y="54.0331" width="2.5735" height="9.97237" rx="1.28675" transform="rotate(-0.144322 762.443 54.0331)" fill="#D7DAE3"/>
<rect x="766.619" y="51.4484" width="2.5735" height="12.5459" rx="1.28675" transform="rotate(-0.144322 766.619 51.4484)" fill="#D7DAE3"/>
<rect x="770.804" y="52.723" width="2.5735" height="7.39886" rx="1.28675" transform="rotate(-0.144322 770.804 52.723)" fill="#D7DAE3"/>
<rect x="774.992" y="55.2866" width="2.5735" height="4.82534" rx="1.28675" transform="rotate(-0.144322 774.992 55.2866)" fill="#D7DAE3"/>
<rect x="101" y="55.0487" width="2.57332" height="13.1883" rx="1.28666" fill="#424242"/>
<rect x="105.182" y="48.2938" width="2.57332" height="26.6982" rx="1.28666" fill="#424242"/>
<rect x="109.363" y="44.7554" width="2.57332" height="33.7748" rx="1.28666" fill="#424242"/>
<rect x="113.545" y="56.0137" width="2.57332" height="11.2583" rx="1.28666" fill="#424242"/>
<rect x="117.727" y="53.1187" width="2.57332" height="17.0482" rx="1.28666" fill="#424242"/>
<rect x="121.908" y="48.9371" width="2.57332" height="25.4115" rx="1.28666" fill="#424242"/>
<rect x="126.09" y="57.9437" width="2.57332" height="7.3983" rx="1.28666" fill="#424242"/>
<rect x="130.271" y="45.3988" width="2.57332" height="32.4882" rx="1.28666" fill="#424242"/>
<rect x="134.453" y="54.4054" width="2.57332" height="14.4749" rx="1.28666" fill="#424242"/>
<rect x="138.635" y="59.8737" width="2.57332" height="3.53832" rx="1.28666" fill="#424242"/>
<rect x="142.816" y="51.5104" width="2.57332" height="20.2649" rx="1.28666" fill="#424242"/>
<rect x="146.998" y="56.0137" width="2.57332" height="11.2583" rx="1.28666" fill="#424242"/>
<rect x="197" y="58.8325" width="2.5735" height="4.82534" rx="1.28675" fill="#424242"/>
<rect x="201.182" y="54.9731" width="2.5735" height="10.9374" rx="1.28675" fill="#424242"/>
<rect x="205.363" y="53.3635" width="2.5735" height="12.5459" rx="1.28675" fill="#424242"/>
<rect x="209.546" y="53.3636" width="2.5735" height="15.7628" rx="1.28675" fill="#424242"/>
<rect x="213.728" y="55.6177" width="2.5735" height="11.2591" rx="1.28675" fill="#424242"/>
<rect x="217.909" y="55.6177" width="2.5735" height="11.2591" rx="1.28675" fill="#424242"/>
<rect x="222.092" y="58.8325" width="2.5735" height="4.82534" rx="1.28675" fill="#424242"/>
<rect x="226.274" y="53.3636" width="2.5735" height="11.5808" rx="1.28675" fill="#424242"/>
<rect x="230.455" y="57.5474" width="2.5735" height="9.97237" rx="1.28675" fill="#424242"/>
<rect x="234.638" y="54.9731" width="2.5735" height="12.5459" rx="1.28675" fill="#424242"/>
<rect x="238.819" y="56.2583" width="2.5735" height="7.39886" rx="1.28675" fill="#424242"/>
<rect x="243.001" y="58.8325" width="2.5735" height="4.82534" rx="1.28675" fill="#424242"/>
<rect x="508" y="58.2388" width="2.5735" height="4.82534" rx="1.28675" fill="#D7DAE3"/>
<rect x="512.182" y="54.3794" width="2.5735" height="10.9374" rx="1.28675" fill="#D7DAE3"/>
<rect x="516.363" y="52.7698" width="2.5735" height="12.5459" rx="1.28675" fill="#D7DAE3"/>
<rect x="520.546" y="52.7699" width="2.5735" height="15.7628" rx="1.28675" fill="#D7DAE3"/>
<rect x="524.728" y="55.0239" width="2.5735" height="11.2591" rx="1.28675" fill="#D7DAE3"/>
<rect x="528" y="58.2388" width="2.5735" height="4.82534" rx="1.28675" fill="#D7DAE3"/>
<rect x="532.182" y="54.3794" width="2.5735" height="10.9374" rx="1.28675" fill="#D7DAE3"/>
<rect x="536.363" y="52.7698" width="2.5735" height="12.5459" rx="1.28675" fill="#D7DAE3"/>
<rect x="540.546" y="52.7699" width="2.5735" height="15.7628" rx="1.28675" fill="#D7DAE3"/>
<rect x="544.728" y="55.0239" width="2.5735" height="11.2591" rx="1.28675" fill="#D7DAE3"/>
<rect x="909" y="54.7766" width="2.57332" height="12.5449" rx="1.28666" fill="#D7DAE3"/>
<rect x="913.182" y="47.3784" width="2.57332" height="27.3415" rx="1.28666" fill="#D7DAE3"/>
<rect x="917.363" y="57.0283" width="2.57332" height="8.04163" rx="1.28666" fill="#D7DAE3"/>
<rect x="921.545" y="59.6016" width="2.57332" height="2.89499" rx="1.28666" fill="#D7DAE3"/>
<rect x="925.727" y="50.2733" width="2.57332" height="21.5516" rx="1.28666" fill="#D7DAE3"/>
<rect x="929.908" y="45.77" width="2.57332" height="30.5582" rx="1.28666" fill="#D7DAE3"/>
<rect x="934.09" y="55.42" width="2.57332" height="11.2583" rx="1.28666" fill="#D7DAE3"/>
<rect x="938.272" y="57.6716" width="2.57332" height="6.75497" rx="1.28666" fill="#D7DAE3"/>
<rect x="942.453" y="50.9167" width="2.57332" height="20.2649" rx="1.28666" fill="#D7DAE3"/>
<rect x="946.635" y="58.6366" width="2.57332" height="4.82498" rx="1.28666" fill="#D7DAE3"/>
<rect x="950.816" y="52.8467" width="2.57332" height="16.4049" rx="1.28666" fill="#D7DAE3"/>
<rect x="954.998" y="56.0633" width="2.57332" height="9.97162" rx="1.28666" fill="#D7DAE3"/>
<rect x="433" y="50.7766" width="2.57332" height="12.5449" rx="1.28666" fill="#D7DAE3"/>
<rect x="437.182" y="43.3784" width="2.57332" height="27.3415" rx="1.28666" fill="#D7DAE3"/>
<rect x="441.363" y="53.0283" width="2.57332" height="8.04163" rx="1.28666" fill="#D7DAE3"/>
<rect x="445.545" y="55.6016" width="2.57332" height="2.89499" rx="1.28666" fill="#D7DAE3"/>
<rect x="449.727" y="46.2733" width="2.57332" height="21.5516" rx="1.28666" fill="#D7DAE3"/>
<rect x="453.908" y="41.77" width="2.57332" height="30.5582" rx="1.28666" fill="#D7DAE3"/>
<rect x="458.09" y="51.42" width="2.57332" height="11.2583" rx="1.28666" fill="#D7DAE3"/>
<rect x="462.271" y="53.6716" width="2.57332" height="6.75497" rx="1.28666" fill="#D7DAE3"/>
<rect x="466.453" y="46.9167" width="2.57332" height="20.2649" rx="1.28666" fill="#D7DAE3"/>
<rect x="470.635" y="54.6366" width="2.57332" height="4.82498" rx="1.28666" fill="#D7DAE3"/>
<rect x="474.816" y="48.8467" width="2.57332" height="16.4049" rx="1.28666" fill="#D7DAE3"/>
<rect x="478.998" y="52.0633" width="2.57332" height="9.97162" rx="1.28666" fill="#D7DAE3"/>
<path d="M11.3097 56.4973V63.77H10.429V57.4206H10.3864L8.6108 58.5996V57.7047L10.429 56.4973H11.3097Z" fill="#6D6F79"/>
<rect x="849.098" y="54.7766" width="2.57332" height="12.5449" rx="1.28666" fill="#D7DAE3"/>
<rect x="853.28" y="47.3784" width="2.57332" height="27.3415" rx="1.28666" fill="#D7DAE3"/>
<rect x="857.461" y="57.0283" width="2.57332" height="8.04163" rx="1.28666" fill="#D7DAE3"/>
<rect x="861.643" y="59.6016" width="2.57332" height="2.89499" rx="1.28666" fill="#D7DAE3"/>
<rect x="865.825" y="50.2733" width="2.57332" height="21.5516" rx="1.28666" fill="#D7DAE3"/>
<rect x="870.006" y="45.77" width="2.57332" height="30.5582" rx="1.28666" fill="#D7DAE3"/>
<rect x="874.188" y="55.42" width="2.57332" height="11.2583" rx="1.28666" fill="#D7DAE3"/>
<rect x="878.37" y="57.6716" width="2.57332" height="6.75497" rx="1.28666" fill="#D7DAE3"/>
<rect x="882.551" y="50.9167" width="2.57332" height="20.2649" rx="1.28666" fill="#D7DAE3"/>
<rect x="886.733" y="58.6366" width="2.57332" height="4.82498" rx="1.28666" fill="#D7DAE3"/>
<rect x="890.915" y="52.8467" width="2.57332" height="16.4049" rx="1.28666" fill="#D7DAE3"/>
<rect x="895.096" y="56.0633" width="2.57332" height="9.97162" rx="1.28666" fill="#D7DAE3"/>
<rect width="1159" height="40" transform="translate(0 80.77)" fill="white"/>
<rect x="45" y="97.8921" width="2.55202" height="6.06105" rx="1.27601" fill="#424242"/>
<rect x="49.147" y="91.1931" width="2.55202" height="19.4592" rx="1.27601" fill="#424242"/>
<rect x="53.2941" y="85.77" width="2.55202" height="30.3052" rx="1.27601" fill="#424242"/>
<rect x="57.441" y="91.1931" width="2.55202" height="19.4592" rx="1.27601" fill="#424242"/>
<rect x="61.5881" y="98.5301" width="2.55202" height="4.78504" rx="1.27601" fill="#424242"/>
<rect x="65.7351" y="91.1931" width="2.55202" height="19.4592" rx="1.27601" fill="#424242"/>
<rect x="69.8822" y="85.77" width="2.55202" height="30.3052" rx="1.27601" fill="#424242"/>
<rect x="74.0292" y="91.1931" width="2.55202" height="19.4592" rx="1.27601" fill="#424242"/>
<rect x="78.1763" y="97.8921" width="2.55202" height="6.06105" rx="1.27601" fill="#424242"/>
<rect x="82.3232" y="94.3831" width="2.55202" height="13.0791" rx="1.27601" fill="#424242"/>
<rect x="86.4703" y="88.322" width="2.55202" height="25.2012" rx="1.27601" fill="#424242"/>
<rect x="90.6173" y="99.1682" width="2.55202" height="3.50903" rx="1.27601" fill="#424242"/>
<line x1="389" y1="100.899" x2="41.0004" y2="100.899" stroke="#424242" stroke-width="0.258131"/>
<line x1="1175.01" y1="100.899" x2="388.995" y2="100.899" stroke="#8B8BA0" stroke-width="0.258131"/>
<rect x="651" y="95.7766" width="2.57332" height="12.5449" rx="1.28666" fill="#D7DAE3"/>
<rect x="655.182" y="88.3784" width="2.57332" height="27.3415" rx="1.28666" fill="#D7DAE3"/>
<rect x="659.363" y="98.0283" width="2.57332" height="8.04163" rx="1.28666" fill="#D7DAE3"/>
<rect x="663.545" y="100.602" width="2.57332" height="2.89499" rx="1.28666" fill="#D7DAE3"/>
<rect x="667.727" y="91.2733" width="2.57332" height="21.5516" rx="1.28666" fill="#D7DAE3"/>
<rect x="671.908" y="86.77" width="2.57332" height="30.5582" rx="1.28666" fill="#D7DAE3"/>
<rect x="676.09" y="96.42" width="2.57332" height="11.2583" rx="1.28666" fill="#D7DAE3"/>
<rect x="680.272" y="98.6716" width="2.57332" height="6.75497" rx="1.28666" fill="#D7DAE3"/>
<rect x="684.453" y="91.9167" width="2.57332" height="20.2649" rx="1.28666" fill="#D7DAE3"/>
<rect x="688.635" y="99.6366" width="2.57332" height="4.82498" rx="1.28666" fill="#D7DAE3"/>
<rect x="692.816" y="93.8467" width="2.57332" height="16.4049" rx="1.28666" fill="#D7DAE3"/>
<rect x="696.998" y="97.0633" width="2.57332" height="9.97162" rx="1.28666" fill="#D7DAE3"/>
<rect x="1053" y="99.2388" width="2.5735" height="4.82534" rx="1.28675" fill="#D7DAE3"/>
<rect x="1057.18" y="95.3794" width="2.5735" height="10.9374" rx="1.28675" fill="#D7DAE3"/>
<rect x="1061.36" y="93.7698" width="2.5735" height="12.5459" rx="1.28675" fill="#D7DAE3"/>
<rect x="1065.55" y="93.7699" width="2.5735" height="15.7628" rx="1.28675" fill="#D7DAE3"/>
<rect x="1069.73" y="96.0239" width="2.5735" height="11.2591" rx="1.28675" fill="#D7DAE3"/>
<rect x="1073.91" y="96.0239" width="2.5735" height="11.2591" rx="1.28675" fill="#D7DAE3"/>
<rect x="1078.09" y="99.2388" width="2.5735" height="4.82534" rx="1.28675" fill="#D7DAE3"/>
<rect x="1082.27" y="93.7699" width="2.5735" height="11.5808" rx="1.28675" fill="#D7DAE3"/>
<rect x="1086.46" y="97.9536" width="2.5735" height="9.97237" rx="1.28675" fill="#D7DAE3"/>
<rect x="1090.64" y="95.3794" width="2.5735" height="12.5459" rx="1.28675" fill="#D7DAE3"/>
<rect x="1094.82" y="96.6646" width="2.5735" height="7.39886" rx="1.28675" fill="#D7DAE3"/>
<rect x="1099" y="99.2388" width="2.5735" height="4.82534" rx="1.28675" fill="#D7DAE3"/>
<rect x="1005" y="99.2388" width="2.5735" height="4.82534" rx="1.28675" fill="#D7DAE3"/>
<rect x="1009.18" y="95.3794" width="2.5735" height="10.9374" rx="1.28675" fill="#D7DAE3"/>
<rect x="1013.36" y="93.7698" width="2.5735" height="12.5459" rx="1.28675" fill="#D7DAE3"/>
<rect x="1017.55" y="93.7699" width="2.5735" height="15.7628" rx="1.28675" fill="#D7DAE3"/>
<rect x="1021.73" y="96.0239" width="2.5735" height="11.2591" rx="1.28675" fill="#D7DAE3"/>
<rect x="1025.91" y="96.0239" width="2.5735" height="11.2591" rx="1.28675" fill="#D7DAE3"/>
<rect x="1030.09" y="99.2388" width="2.5735" height="4.82534" rx="1.28675" fill="#D7DAE3"/>
<rect x="1034.27" y="93.7699" width="2.5735" height="11.5808" rx="1.28675" fill="#D7DAE3"/>
<rect x="1038.46" y="97.9536" width="2.5735" height="9.97237" rx="1.28675" fill="#D7DAE3"/>
<rect x="1042.64" y="95.3794" width="2.5735" height="12.5459" rx="1.28675" fill="#D7DAE3"/>
<rect x="1046.82" y="96.6646" width="2.5735" height="7.39886" rx="1.28675" fill="#D7DAE3"/>
<rect x="1051" y="99.2388" width="2.5735" height="4.82534" rx="1.28675" fill="#D7DAE3"/>
<path d="M393.151 25.5954C393.071 25.6875 392.929 25.6875 392.849 25.5954L388.09 20.101C387.978 19.9714 388.07 19.77 388.242 19.77L397.758 19.77C397.93 19.77 398.022 19.9714 397.91 20.1009L393.151 25.5954Z" fill="#333333"/>
<path d="M393 120.77V23.77" stroke="#333333" stroke-width="2"/>
<rect x="551.5" y="94.7766" width="2.57332" height="12.5449" rx="1.28666" fill="#D7DAE3"/>
<rect x="555.682" y="87.3784" width="2.57332" height="27.3415" rx="1.28666" fill="#D7DAE3"/>
<rect x="559.863" y="97.0283" width="2.57332" height="8.04163" rx="1.28666" fill="#D7DAE3"/>
<rect x="564.045" y="99.6016" width="2.57332" height="2.89499" rx="1.28666" fill="#D7DAE3"/>
<rect x="568.227" y="90.2733" width="2.57332" height="21.5516" rx="1.28666" fill="#D7DAE3"/>
<rect x="572.408" y="85.77" width="2.57332" height="30.5582" rx="1.28666" fill="#D7DAE3"/>
<rect x="576.59" y="95.42" width="2.57332" height="11.2583" rx="1.28666" fill="#D7DAE3"/>
<rect x="580.772" y="97.6716" width="2.57332" height="6.75497" rx="1.28666" fill="#D7DAE3"/>
<rect x="584.953" y="90.9167" width="2.57332" height="20.2649" rx="1.28666" fill="#D7DAE3"/>
<rect x="589.135" y="98.6366" width="2.57332" height="4.82498" rx="1.28666" fill="#D7DAE3"/>
<rect x="593.316" y="92.8467" width="2.57332" height="16.4049" rx="1.28666" fill="#D7DAE3"/>
<rect x="597.498" y="96.0633" width="2.57332" height="9.97162" rx="1.28666" fill="#D7DAE3"/>
<rect x="601.23" y="98.6365" width="2.5735" height="4.82534" rx="1.28675" fill="#D7DAE3"/>
<rect x="605.412" y="94.7771" width="2.5735" height="10.9374" rx="1.28675" fill="#D7DAE3"/>
<rect x="609.594" y="93.1675" width="2.5735" height="12.5459" rx="1.28675" fill="#D7DAE3"/>
<rect x="613.776" y="93.1676" width="2.5735" height="15.7628" rx="1.28675" fill="#D7DAE3"/>
<rect x="617.958" y="95.4216" width="2.5735" height="11.2591" rx="1.28675" fill="#D7DAE3"/>
<rect x="622.14" y="95.4216" width="2.5735" height="11.2591" rx="1.28675" fill="#D7DAE3"/>
<rect x="626.322" y="98.6365" width="2.5735" height="4.82534" rx="1.28675" fill="#D7DAE3"/>
<rect x="630.504" y="93.1676" width="2.5735" height="11.5808" rx="1.28675" fill="#D7DAE3"/>
<rect x="634.686" y="97.3513" width="2.5735" height="9.97237" rx="1.28675" fill="#D7DAE3"/>
<rect x="638.868" y="94.7771" width="2.5735" height="12.5459" rx="1.28675" fill="#D7DAE3"/>
<rect x="643.05" y="96.0623" width="2.5735" height="7.39886" rx="1.28675" fill="#D7DAE3"/>
<rect x="647.231" y="98.6365" width="2.5735" height="4.82534" rx="1.28675" fill="#D7DAE3"/>
<path d="M6.75284 104.77V104.131L9.15341 101.503C9.43513 101.195 9.66714 100.928 9.84943 100.7C10.0317 100.471 10.1667 100.255 10.2543 100.054C10.3442 99.8505 10.3892 99.6374 10.3892 99.4149C10.3892 99.1592 10.3277 98.9379 10.2045 98.7508C10.0838 98.5638 9.91809 98.4194 9.70739 98.3176C9.49669 98.2158 9.25994 98.1649 8.99716 98.1649C8.7178 98.1649 8.47396 98.2229 8.26562 98.3389C8.05966 98.4525 7.89986 98.6123 7.78622 98.8183C7.67495 99.0243 7.61932 99.2658 7.61932 99.5427H6.78125C6.78125 99.1166 6.8795 98.7426 7.07599 98.4206C7.27249 98.0986 7.54001 97.8477 7.87855 97.6677C8.21946 97.4878 8.6018 97.3979 9.02557 97.3979C9.4517 97.3979 9.82931 97.4878 10.1584 97.6677C10.4875 97.8477 10.7455 98.0903 10.9325 98.3957C11.1196 98.7011 11.2131 99.0409 11.2131 99.4149C11.2131 99.6824 11.1645 99.944 11.0675 100.2C10.9728 100.453 10.8071 100.736 10.5703 101.048C10.3359 101.359 10.0104 101.737 9.59375 102.185L7.96023 103.932V103.989H11.3409V104.77H6.75284Z" fill="#6D6F79"/>
<rect width="1159" height="48" transform="translate(0 120.77)" fill="#F8F9FC"/>
<g clip-path="url(#clip6_4449_73204)">
<path d="M30 142.63V146.91L26.97 144.77L30 142.63ZM21 142.63V146.91L17.97 144.77L21 142.63ZM32 138.77L23.5 144.77L32 150.77V138.77ZM23 138.77L14.5 144.77L23 150.77V138.77Z" fill="#424242"/>
</g>
<g clip-path="url(#clip7_4449_73204)">
<path d="M46.6666 135.437V154.103L61.3333 144.77L46.6666 135.437Z" fill="#424242"/>
</g>
<g clip-path="url(#clip8_4449_73204)">
<path d="M83 142.63L86.03 144.77L83 146.91V142.63ZM74 142.63L77.03 144.77L74 146.91V142.63ZM81 138.77V150.77L89.5 144.77L81 138.77ZM72 138.77V150.77L80.5 144.77L72 138.77Z" fill="#424242"/>
</g>
<path d="M114 153.103C112.958 153.103 111.983 152.905 111.073 152.51C110.163 152.114 109.372 151.579 108.698 150.905C108.024 150.232 107.49 149.44 107.094 148.53C106.698 147.621 106.5 146.645 106.5 145.603H108.167C108.167 147.228 108.733 148.607 109.865 149.739C110.997 150.871 112.375 151.437 114 151.437C115.625 151.437 117.004 150.871 118.135 149.739C119.267 148.607 119.833 147.228 119.833 145.603C119.833 143.978 119.267 142.6 118.135 141.468C117.004 140.336 115.625 139.77 114 139.77H113.875L115.167 141.062L114 142.27L110.667 138.937L114 135.603L115.167 136.812L113.875 138.103H114C115.042 138.103 116.017 138.301 116.927 138.697C117.837 139.093 118.629 139.628 119.302 140.301C119.976 140.975 120.51 141.767 120.906 142.676C121.302 143.586 121.5 144.562 121.5 145.603C121.5 146.645 121.302 147.621 120.906 148.53C120.51 149.44 119.976 150.232 119.302 150.905C118.629 151.579 117.837 152.114 116.927 152.51C116.017 152.905 115.042 153.103 114 153.103Z" fill="#424242"/>
<path d="M140.842 140.088V150.27H139.301V141.629H139.242L136.806 143.22V141.749L139.346 140.088H140.842ZM144.022 150.364C143.75 150.364 143.516 150.268 143.321 150.076C143.125 149.881 143.027 149.645 143.027 149.37C143.027 149.098 143.125 148.866 143.321 148.674C143.516 148.479 143.75 148.381 144.022 148.381C144.294 148.381 144.527 148.479 144.723 148.674C144.918 148.866 145.016 149.098 145.016 149.37C145.016 149.552 144.97 149.72 144.877 149.872C144.787 150.021 144.668 150.141 144.519 150.23C144.37 150.32 144.204 150.364 144.022 150.364ZM150.149 150.439C149.364 150.436 148.693 150.229 148.136 149.818C147.579 149.407 147.153 148.808 146.858 148.023C146.563 147.237 146.416 146.291 146.416 145.184C146.416 144.08 146.563 143.137 146.858 142.355C147.156 141.573 147.584 140.976 148.141 140.565C148.701 140.154 149.37 139.949 150.149 139.949C150.928 139.949 151.596 140.156 152.153 140.57C152.71 140.981 153.136 141.578 153.431 142.36C153.729 143.139 153.878 144.08 153.878 145.184C153.878 146.294 153.73 147.242 153.435 148.028C153.141 148.81 152.715 149.408 152.158 149.823C151.601 150.234 150.931 150.439 150.149 150.439ZM150.149 149.112C150.839 149.112 151.377 148.775 151.765 148.102C152.156 147.43 152.352 146.457 152.352 145.184C152.352 144.339 152.262 143.625 152.083 143.041C151.908 142.455 151.654 142.011 151.323 141.709C150.994 141.404 150.603 141.252 150.149 141.252C149.463 141.252 148.925 141.59 148.534 142.266C148.142 142.942 147.945 143.915 147.942 145.184C147.942 146.033 148.03 146.75 148.205 147.337C148.384 147.92 148.638 148.363 148.966 148.664C149.294 148.962 149.689 149.112 150.149 149.112ZM156.835 142.634L158.52 145.607L160.22 142.634H161.846L159.465 146.452L161.866 150.27H160.24L158.52 147.416L156.805 150.27H155.174L157.551 146.452L155.204 142.634H156.835Z" fill="#424242"/>
<path d="M175 147.77L170 142.77H180L175 147.77Z" fill="#424242"/>
<path d="M416.242 140.576L410.642 148.038H416.326V149.27H408.962V148.052L414.548 140.576H409.074V139.358H416.242V140.576ZM424.475 145.938C424.475 146.451 424.382 146.923 424.195 147.352C424.018 147.781 423.766 148.155 423.439 148.472C423.122 148.78 422.744 149.023 422.305 149.2C421.866 149.368 421.395 149.452 420.891 149.452C420.387 149.452 419.916 149.368 419.477 149.2C419.038 149.023 418.66 148.78 418.343 148.472C418.026 148.155 417.774 147.781 417.587 147.352C417.41 146.923 417.321 146.451 417.321 145.938C417.321 145.425 417.41 144.958 417.587 144.538C417.774 144.109 418.026 143.74 418.343 143.432C418.66 143.124 419.038 142.886 419.477 142.718C419.916 142.541 420.387 142.452 420.891 142.452C421.395 142.452 421.866 142.541 422.305 142.718C422.744 142.886 423.122 143.124 423.439 143.432C423.766 143.74 424.018 144.109 424.195 144.538C424.382 144.958 424.475 145.425 424.475 145.938ZM423.103 145.938C423.103 145.621 423.052 145.317 422.949 145.028C422.856 144.739 422.716 144.487 422.529 144.272C422.342 144.048 422.109 143.871 421.829 143.74C421.558 143.609 421.246 143.544 420.891 143.544C420.536 143.544 420.219 143.609 419.939 143.74C419.668 143.871 419.44 144.048 419.253 144.272C419.066 144.487 418.922 144.739 418.819 145.028C418.726 145.317 418.679 145.621 418.679 145.938C418.679 146.255 418.726 146.559 418.819 146.848C418.922 147.137 419.066 147.394 419.253 147.618C419.44 147.842 419.668 148.019 419.939 148.15C420.219 148.281 420.536 148.346 420.891 148.346C421.246 148.346 421.558 148.281 421.829 148.15C422.109 148.019 422.342 147.842 422.529 147.618C422.716 147.394 422.856 147.137 422.949 146.848C423.052 146.559 423.103 146.255 423.103 145.938ZM433.02 145.938C433.02 146.451 432.927 146.923 432.74 147.352C432.563 147.781 432.311 148.155 431.984 148.472C431.667 148.78 431.289 149.023 430.85 149.2C430.411 149.368 429.94 149.452 429.436 149.452C428.932 149.452 428.461 149.368 428.022 149.2C427.583 149.023 427.205 148.78 426.888 148.472C426.571 148.155 426.319 147.781 426.132 147.352C425.955 146.923 425.866 146.451 425.866 145.938C425.866 145.425 425.955 144.958 426.132 144.538C426.319 144.109 426.571 143.74 426.888 143.432C427.205 143.124 427.583 142.886 428.022 142.718C428.461 142.541 428.932 142.452 429.436 142.452C429.94 142.452 430.411 142.541 430.85 142.718C431.289 142.886 431.667 143.124 431.984 143.432C432.311 143.74 432.563 144.109 432.74 144.538C432.927 144.958 433.02 145.425 433.02 145.938ZM431.648 145.938C431.648 145.621 431.597 145.317 431.494 145.028C431.401 144.739 431.261 144.487 431.074 144.272C430.887 144.048 430.654 143.871 430.374 143.74C430.103 143.609 429.791 143.544 429.436 143.544C429.081 143.544 428.764 143.609 428.484 143.74C428.213 143.871 427.985 144.048 427.798 144.272C427.611 144.487 427.467 144.739 427.364 145.028C427.271 145.317 427.224 145.621 427.224 145.938C427.224 146.255 427.271 146.559 427.364 146.848C427.467 147.137 427.611 147.394 427.798 147.618C427.985 147.842 428.213 148.019 428.484 148.15C428.764 148.281 429.081 148.346 429.436 148.346C429.791 148.346 430.103 148.281 430.374 148.15C430.654 148.019 430.887 147.842 431.074 147.618C431.261 147.394 431.401 147.137 431.494 146.848C431.597 146.559 431.648 146.255 431.648 145.938ZM436.133 143.726C436.301 143.371 436.567 143.073 436.931 142.83C437.304 142.578 437.743 142.452 438.247 142.452C438.695 142.452 439.096 142.555 439.451 142.76C439.815 142.965 440.1 143.306 440.305 143.782C440.529 143.353 440.842 143.026 441.243 142.802C441.644 142.569 442.083 142.452 442.559 142.452C442.988 142.452 443.357 142.527 443.665 142.676C443.973 142.816 444.23 143.007 444.435 143.25C444.64 143.493 444.79 143.777 444.883 144.104C444.986 144.431 445.037 144.781 445.037 145.154V149.27H443.721V145.588C443.721 145.317 443.698 145.061 443.651 144.818C443.604 144.575 443.525 144.361 443.413 144.174C443.301 143.987 443.152 143.838 442.965 143.726C442.778 143.614 442.54 143.558 442.251 143.558C441.952 143.558 441.696 143.623 441.481 143.754C441.266 143.875 441.089 144.039 440.949 144.244C440.818 144.44 440.72 144.664 440.655 144.916C440.599 145.168 440.571 145.425 440.571 145.686V149.27H439.255V145.322C439.255 145.061 439.232 144.823 439.185 144.608C439.138 144.393 439.059 144.211 438.947 144.062C438.835 143.903 438.69 143.782 438.513 143.698C438.336 143.605 438.116 143.558 437.855 143.558C437.37 143.558 436.964 143.759 436.637 144.16C436.32 144.552 436.161 145.079 436.161 145.742V149.27H434.845V144.062C434.845 143.885 434.84 143.656 434.831 143.376C434.822 143.096 434.808 142.849 434.789 142.634H436.035C436.054 142.802 436.068 142.993 436.077 143.208C436.086 143.413 436.091 143.586 436.091 143.726H436.133Z" fill="black"/>
<g filter="url(#filter0_d_4449_73204)">
<rect x="451.5" y="131.27" width="86" height="27" rx="2" fill="white"/>
<rect x="452" y="131.77" width="85" height="26" rx="1.5" stroke="#D7DAE3"/>
<g clip-path="url(#clip9_4449_73204)">
<path d="M472.134 140.088V150.27H470.901V141.381H470.841L468.355 143.031V141.779L470.901 140.088H472.134ZM478.383 150.409C477.634 150.409 476.996 150.205 476.469 149.798C475.942 149.387 475.539 148.792 475.261 148.013C474.982 147.231 474.843 146.286 474.843 145.179C474.843 144.079 474.982 143.139 475.261 142.36C475.542 141.578 475.947 140.981 476.474 140.57C477.004 140.156 477.64 139.949 478.383 139.949C479.125 139.949 479.76 140.156 480.287 140.57C480.817 140.981 481.222 141.578 481.5 142.36C481.782 143.139 481.923 144.079 481.923 145.179C481.923 146.286 481.783 147.231 481.505 148.013C481.227 148.792 480.824 149.387 480.297 149.798C479.77 150.205 479.132 150.409 478.383 150.409ZM478.383 149.315C479.125 149.315 479.702 148.958 480.113 148.242C480.524 147.526 480.729 146.505 480.729 145.179C480.729 144.297 480.635 143.547 480.446 142.927C480.26 142.307 479.992 141.835 479.641 141.51C479.293 141.185 478.873 141.023 478.383 141.023C477.647 141.023 477.072 141.386 476.658 142.112C476.243 142.834 476.036 143.857 476.036 145.179C476.036 146.061 476.129 146.81 476.315 147.426C476.5 148.043 476.767 148.512 477.115 148.833C477.466 149.155 477.889 149.315 478.383 149.315ZM487.133 150.409C486.384 150.409 485.746 150.205 485.219 149.798C484.692 149.387 484.289 148.792 484.011 148.013C483.732 147.231 483.593 146.286 483.593 145.179C483.593 144.079 483.732 143.139 484.011 142.36C484.292 141.578 484.697 140.981 485.224 140.57C485.754 140.156 486.39 139.949 487.133 139.949C487.875 139.949 488.51 140.156 489.037 140.57C489.567 140.981 489.972 141.578 490.25 142.36C490.532 143.139 490.673 144.079 490.673 145.179C490.673 146.286 490.533 147.231 490.255 148.013C489.977 148.792 489.574 149.387 489.047 149.798C488.52 150.205 487.882 150.409 487.133 150.409ZM487.133 149.315C487.875 149.315 488.452 148.958 488.863 148.242C489.274 147.526 489.479 146.505 489.479 145.179C489.479 144.297 489.385 143.547 489.196 142.927C489.01 142.307 488.742 141.835 488.391 141.51C488.043 141.185 487.623 141.023 487.133 141.023C486.397 141.023 485.822 141.386 485.408 142.112C484.993 142.834 484.786 143.857 484.786 145.179C484.786 146.061 484.879 146.81 485.065 147.426C485.25 148.043 485.517 148.512 485.865 148.833C486.216 149.155 486.639 149.315 487.133 149.315ZM497.752 148.361V147.824C497.752 147.453 497.828 147.113 497.981 146.805C498.137 146.493 498.362 146.245 498.657 146.059C498.955 145.87 499.317 145.776 499.741 145.776C500.172 145.776 500.533 145.87 500.825 146.059C501.116 146.245 501.337 146.493 501.486 146.805C501.635 147.113 501.71 147.453 501.71 147.824V148.361C501.71 148.732 501.633 149.074 501.481 149.385C501.332 149.693 501.11 149.942 500.815 150.131C500.523 150.316 500.165 150.409 499.741 150.409C499.31 150.409 498.947 150.316 498.652 150.131C498.357 149.942 498.133 149.693 497.981 149.385C497.828 149.074 497.752 148.732 497.752 148.361ZM498.766 147.824V148.361C498.766 148.669 498.839 148.946 498.985 149.191C499.131 149.433 499.383 149.554 499.741 149.554C500.089 149.554 500.334 149.433 500.477 149.191C500.622 148.946 500.695 148.669 500.695 148.361V147.824C500.695 147.516 500.626 147.241 500.487 146.999C500.347 146.753 500.099 146.631 499.741 146.631C499.393 146.631 499.143 146.753 498.99 146.999C498.841 147.241 498.766 147.516 498.766 147.824ZM492.681 142.534V141.997C492.681 141.626 492.757 141.286 492.91 140.978C493.066 140.667 493.291 140.418 493.586 140.232C493.884 140.043 494.246 139.949 494.67 139.949C495.101 139.949 495.462 140.043 495.754 140.232C496.045 140.418 496.266 140.667 496.415 140.978C496.564 141.286 496.638 141.626 496.638 141.997V142.534C496.638 142.905 496.562 143.247 496.41 143.558C496.261 143.867 496.039 144.115 495.744 144.304C495.452 144.49 495.094 144.583 494.67 144.583C494.239 144.583 493.876 144.49 493.581 144.304C493.286 144.115 493.062 143.867 492.91 143.558C492.757 143.247 492.681 142.905 492.681 142.534ZM493.695 141.997V142.534C493.695 142.842 493.768 143.119 493.914 143.364C494.06 143.606 494.312 143.727 494.67 143.727C495.018 143.727 495.263 143.606 495.406 143.364C495.551 143.119 495.624 142.842 495.624 142.534V141.997C495.624 141.689 495.555 141.414 495.415 141.172C495.276 140.927 495.028 140.804 494.67 140.804C494.322 140.804 494.071 140.927 493.919 141.172C493.77 141.414 493.695 141.689 493.695 141.997ZM493.059 150.27L500.059 140.088H501.192L494.192 150.27H493.059Z" fill="#424242"/>
</g>
<path d="M520.652 142.288H519.815C519.758 142.288 519.704 142.316 519.671 142.362L516.5 146.732L513.329 142.362C513.296 142.316 513.242 142.288 513.186 142.288H512.348C512.276 142.288 512.234 142.371 512.276 142.43L516.211 147.855C516.354 148.051 516.646 148.051 516.788 147.855L520.723 142.43C520.767 142.371 520.725 142.288 520.652 142.288Z" fill="#424242"/>
</g>
<rect x="546" y="130.27" width="194" height="29" rx="3.5" fill="white" stroke="#15808C"/>
<rect width="192" height="19" transform="translate(548 134.27)" fill="white"/>
<rect x="548" y="142.77" width="3" height="3" rx="1.5" fill="#424242"/>
<rect x="552" y="139.77" width="3" height="10" rx="1.5" fill="#424242"/>
<rect x="556" y="136.77" width="3" height="16" rx="1.5" fill="#424242"/>
<rect x="560" y="139.77" width="3" height="10" rx="1.5" fill="#424242"/>
<rect x="565" y="142.77" width="2" height="3" rx="1" fill="#424242"/>
<rect x="569" y="139.77" width="2" height="10" rx="1" fill="#424242"/>
<rect x="573" y="136.77" width="2" height="16" rx="1" fill="#424242"/>
<rect x="577" y="139.77" width="3" height="10" rx="1.5" fill="#424242"/>
<rect x="581" y="142.77" width="3" height="3" rx="1.5" fill="#424242"/>
<rect x="585" y="140.77" width="3" height="8" rx="1.5" fill="#424242"/>
<rect x="589" y="137.77" width="3" height="14" rx="1.5" fill="#424242"/>
<rect x="594" y="143.77" width="2" height="2" rx="1" fill="#BFBFD0"/>
<rect x="596" y="143.77" width="3" height="2" rx="1" fill="#D7DAE3"/>
<rect x="600" y="140.77" width="3" height="8" rx="1.5" fill="#D7DAE3"/>
<rect x="604" y="138.77" width="3" height="13" rx="1.5" fill="#D7DAE3"/>
<rect x="608" y="140.77" width="3" height="8" rx="1.5" fill="#D7DAE3"/>
<rect x="613" y="136.77" width="2" height="17" rx="1" fill="#D7DAE3"/>
<rect x="617" y="142.77" width="2" height="5" rx="1" fill="#D7DAE3"/>
<rect x="621" y="143.77" width="2" height="2" rx="1" fill="#D7DAE3"/>
<rect x="625" y="139.77" width="3" height="11" rx="1.5" fill="#D7DAE3"/>
<rect x="629" y="137.77" width="3" height="14" rx="1.5" fill="#D7DAE3"/>
<rect x="633" y="141.77" width="3" height="7" rx="1.5" fill="#D7DAE3"/>
<rect x="637" y="136.77" width="3" height="16" rx="1.5" fill="#D7DAE3"/>
<rect x="642" y="143.77" width="2" height="2" rx="1" fill="#D7DAE3"/>
<rect x="644" y="142.27" width="3" height="7" rx="1.5" fill="#D7DAE3"/>
<rect x="648" y="138.27" width="3" height="15" rx="1.5" fill="#D7DAE3"/>
<rect x="652" y="136.27" width="3" height="18" rx="1.5" fill="#D7DAE3"/>
<rect x="656" y="142.27" width="3" height="6" rx="1.5" fill="#D7DAE3"/>
<rect x="661" y="141.27" width="2" height="9" rx="1" fill="#D7DAE3"/>
<rect x="665" y="138.27" width="2" height="14" rx="1" fill="#D7DAE3"/>
<rect x="669" y="144.27" width="2" height="3" rx="1" fill="#D7DAE3"/>
<rect x="673" y="137.27" width="3" height="17" rx="1.5" fill="#D7DAE3"/>
<rect x="677" y="141.27" width="3" height="8" rx="1.5" fill="#D7DAE3"/>
<rect x="681" y="144.27" width="3" height="2" rx="1" fill="#D7DAE3"/>
<rect x="685" y="140.27" width="3" height="10" rx="1.5" fill="#D7DAE3"/>
<rect x="690" y="142.27" width="2" height="6" rx="1" fill="#D7DAE3"/>
<rect x="692" y="143.27" width="3" height="3" rx="1.5" fill="#D7DAE3"/>
<rect x="696" y="140.27" width="3" height="9" rx="1.5" fill="#D7DAE3"/>
<rect x="700" y="137.27" width="3" height="15" rx="1.5" fill="#D7DAE3"/>
<rect x="704" y="140.27" width="3" height="9" rx="1.5" fill="#D7DAE3"/>
<rect x="709" y="135.27" width="2" height="19" rx="1" fill="#D7DAE3"/>
<rect x="713" y="142.27" width="2" height="5" rx="1" fill="#D7DAE3"/>
<rect x="717" y="143.27" width="2" height="3" rx="1" fill="#D7DAE3"/>
<rect x="721" y="138.27" width="3" height="13" rx="1.5" fill="#D7DAE3"/>
<rect x="725" y="137.27" width="3" height="15" rx="1.5" fill="#D7DAE3"/>
<rect x="729" y="141.27" width="3" height="7" rx="1.5" fill="#D7DAE3"/>
<rect x="733" y="136.27" width="3" height="17" rx="1.5" fill="#D7DAE3"/>
<rect x="738" y="143.27" width="2" height="3" rx="1" fill="#D7DAE3"/>
<path d="M973.667 152.041V150.333C974.917 149.971 975.924 149.277 976.687 148.249C977.451 147.221 977.833 146.055 977.833 144.749C977.833 143.444 977.451 142.277 976.687 141.249C975.924 140.221 974.917 139.527 973.667 139.166V137.457C975.389 137.846 976.792 138.718 977.875 140.072C978.958 141.426 979.5 142.985 979.5 144.749C979.5 146.513 978.958 148.072 977.875 149.426C976.792 150.78 975.389 151.652 973.667 152.041ZM964.5 147.27V142.27H967.833L972 138.103V151.437L967.833 147.27H964.5ZM973.667 148.103V141.395C974.319 141.701 974.83 142.159 975.198 142.77C975.566 143.381 975.75 144.048 975.75 144.77C975.75 145.478 975.566 146.135 975.198 146.739C974.83 147.343 974.319 147.798 973.667 148.103ZM970.333 142.145L968.542 143.937H966.167V145.603H968.542L970.333 147.395V142.145Z" fill="#424242"/>
<rect width="46" height="2" transform="translate(992 143.77)" fill="#15808C"/>
<circle cx="1044" cy="144.77" r="5.5" fill="white" stroke="#D7DAE3"/>
<path d="M1064.52 150.439C1063.74 150.436 1063.07 150.229 1062.51 149.818C1061.95 149.407 1061.53 148.808 1061.23 148.023C1060.94 147.237 1060.79 146.291 1060.79 145.184C1060.79 144.08 1060.94 143.137 1061.23 142.355C1061.53 141.573 1061.96 140.976 1062.52 140.565C1063.08 140.154 1063.75 139.949 1064.52 139.949C1065.3 139.949 1065.97 140.156 1066.53 140.57C1067.08 140.981 1067.51 141.578 1067.81 142.36C1068.1 143.139 1068.25 144.08 1068.25 145.184C1068.25 146.294 1068.11 147.242 1067.81 148.028C1067.52 148.81 1067.09 149.408 1066.53 149.823C1065.98 150.234 1065.31 150.439 1064.52 150.439ZM1064.52 149.112C1065.21 149.112 1065.75 148.775 1066.14 148.102C1066.53 147.43 1066.73 146.457 1066.73 145.184C1066.73 144.339 1066.64 143.625 1066.46 143.041C1066.28 142.455 1066.03 142.011 1065.7 141.709C1065.37 141.404 1064.98 141.252 1064.52 141.252C1063.84 141.252 1063.3 141.59 1062.91 142.266C1062.52 142.942 1062.32 143.915 1062.32 145.184C1062.32 146.033 1062.4 146.75 1062.58 147.337C1062.76 147.92 1063.01 148.363 1063.34 148.664C1063.67 148.962 1064.06 149.112 1064.52 149.112ZM1070.02 150.27V149.156L1073.46 145.587C1073.83 145.199 1074.13 144.859 1074.37 144.568C1074.61 144.273 1074.79 143.993 1074.91 143.727C1075.03 143.462 1075.09 143.181 1075.09 142.882C1075.09 142.544 1075.01 142.253 1074.85 142.007C1074.69 141.759 1074.48 141.568 1074.2 141.436C1073.93 141.3 1073.62 141.232 1073.27 141.232C1072.91 141.232 1072.59 141.306 1072.32 141.455C1072.05 141.605 1071.84 141.815 1071.69 142.087C1071.55 142.359 1071.47 142.677 1071.47 143.041H1070.01C1070.01 142.422 1070.15 141.88 1070.43 141.416C1070.72 140.952 1071.11 140.592 1071.61 140.337C1072.1 140.078 1072.67 139.949 1073.3 139.949C1073.94 139.949 1074.51 140.077 1074.99 140.332C1075.48 140.584 1075.87 140.928 1076.14 141.366C1076.42 141.8 1076.55 142.291 1076.55 142.837C1076.55 143.215 1076.48 143.585 1076.34 143.946C1076.2 144.307 1075.96 144.71 1075.61 145.154C1075.26 145.595 1074.78 146.13 1074.16 146.76L1072.13 148.878V148.953H1076.72V150.27H1070.02ZM1079.6 149.007C1079.33 149.007 1079.1 148.911 1078.9 148.719C1078.71 148.523 1078.61 148.288 1078.61 148.013C1078.61 147.741 1078.71 147.509 1078.9 147.317C1079.1 147.121 1079.33 147.024 1079.6 147.024C1079.87 147.024 1080.11 147.121 1080.3 147.317C1080.5 147.509 1080.6 147.741 1080.6 148.013C1080.6 148.195 1080.55 148.363 1080.46 148.515C1080.37 148.664 1080.25 148.784 1080.1 148.873C1079.95 148.962 1079.78 149.007 1079.6 149.007ZM1079.6 143.906C1079.33 143.906 1079.1 143.81 1078.9 143.618C1078.71 143.422 1078.61 143.187 1078.61 142.912C1078.61 142.64 1078.71 142.408 1078.9 142.216C1079.1 142.02 1079.33 141.923 1079.6 141.923C1079.87 141.923 1080.11 142.02 1080.3 142.216C1080.5 142.408 1080.6 142.64 1080.6 142.912C1080.6 143.094 1080.55 143.262 1080.46 143.414C1080.37 143.563 1080.25 143.683 1080.1 143.772C1079.95 143.862 1079.78 143.906 1079.6 143.906ZM1086.11 150.439C1085.33 150.436 1084.66 150.229 1084.1 149.818C1083.54 149.407 1083.12 148.808 1082.82 148.023C1082.53 147.237 1082.38 146.291 1082.38 145.184C1082.38 144.08 1082.53 143.137 1082.82 142.355C1083.12 141.573 1083.55 140.976 1084.1 140.565C1084.66 140.154 1085.33 139.949 1086.11 139.949C1086.89 139.949 1087.56 140.156 1088.12 140.57C1088.67 140.981 1089.1 141.578 1089.39 142.36C1089.69 143.139 1089.84 144.08 1089.84 145.184C1089.84 146.294 1089.69 147.242 1089.4 148.028C1089.1 148.81 1088.68 149.408 1088.12 149.823C1087.56 150.234 1086.89 150.439 1086.11 150.439ZM1086.11 149.112C1086.8 149.112 1087.34 148.775 1087.73 148.102C1088.12 147.43 1088.31 146.457 1088.31 145.184C1088.31 144.339 1088.22 143.625 1088.05 143.041C1087.87 142.455 1087.62 142.011 1087.29 141.709C1086.96 141.404 1086.57 141.252 1086.11 141.252C1085.43 141.252 1084.89 141.59 1084.5 142.266C1084.11 142.942 1083.91 143.915 1083.9 145.184C1083.9 146.033 1083.99 146.75 1084.17 147.337C1084.35 147.92 1084.6 148.363 1084.93 148.664C1085.26 148.962 1085.65 149.112 1086.11 149.112ZM1095.47 140.088V150.27H1093.93V141.629H1093.87L1091.43 143.22V141.749L1093.97 140.088H1095.47ZM1105.82 139.611L1102.54 151.801H1101.22L1104.5 139.611H1105.82ZM1110.77 150.27V149.156L1114.22 145.587C1114.59 145.199 1114.89 144.859 1115.13 144.568C1115.37 144.273 1115.55 143.993 1115.67 143.727C1115.79 143.462 1115.85 143.181 1115.85 142.882C1115.85 142.544 1115.77 142.253 1115.61 142.007C1115.45 141.759 1115.23 141.568 1114.96 141.436C1114.68 141.3 1114.37 141.232 1114.03 141.232C1113.66 141.232 1113.35 141.306 1113.07 141.455C1112.8 141.605 1112.59 141.815 1112.45 142.087C1112.3 142.359 1112.23 142.677 1112.23 143.041H1110.76C1110.76 142.422 1110.9 141.88 1111.19 141.416C1111.47 140.952 1111.87 140.592 1112.36 140.337C1112.86 140.078 1113.43 139.949 1114.06 139.949C1114.7 139.949 1115.26 140.077 1115.75 140.332C1116.24 140.584 1116.62 140.928 1116.9 141.366C1117.17 141.8 1117.31 142.291 1117.31 142.837C1117.31 143.215 1117.24 143.585 1117.1 143.946C1116.96 144.307 1116.71 144.71 1116.37 145.154C1116.02 145.595 1115.53 146.13 1114.91 146.76L1112.89 148.878V148.953H1117.47V150.27H1110.77ZM1122.72 150.409C1122.1 150.409 1121.54 150.29 1121.04 150.051C1120.54 149.809 1120.15 149.478 1119.86 149.057C1119.56 148.636 1119.4 148.155 1119.38 147.615H1120.87C1120.91 148.053 1121.1 148.412 1121.46 148.694C1121.81 148.976 1122.23 149.117 1122.72 149.117C1123.11 149.117 1123.46 149.027 1123.76 148.848C1124.06 148.666 1124.3 148.416 1124.47 148.097C1124.65 147.779 1124.74 147.416 1124.74 147.009C1124.74 146.594 1124.65 146.225 1124.47 145.9C1124.29 145.575 1124.04 145.32 1123.73 145.134C1123.42 144.949 1123.06 144.854 1122.65 144.851C1122.35 144.851 1122.04 144.904 1121.72 145.01C1121.41 145.116 1121.16 145.255 1120.97 145.428L1119.56 145.219L1120.13 140.088H1125.73V141.406H1121.41L1121.09 144.254H1121.15C1121.35 144.062 1121.61 143.901 1121.94 143.772C1122.27 143.643 1122.62 143.578 1123 143.578C1123.62 143.578 1124.17 143.726 1124.66 144.021C1125.15 144.316 1125.53 144.718 1125.81 145.229C1126.09 145.736 1126.23 146.319 1126.22 146.979C1126.23 147.638 1126.08 148.227 1125.78 148.744C1125.48 149.261 1125.06 149.668 1124.53 149.967C1124.01 150.262 1123.4 150.409 1122.72 150.409ZM1129.04 149.007C1128.77 149.007 1128.53 148.911 1128.34 148.719C1128.14 148.523 1128.04 148.288 1128.04 148.013C1128.04 147.741 1128.14 147.509 1128.34 147.317C1128.53 147.121 1128.77 147.024 1129.04 147.024C1129.31 147.024 1129.54 147.121 1129.74 147.317C1129.94 147.509 1130.03 147.741 1130.03 148.013C1130.03 148.195 1129.99 148.363 1129.89 148.515C1129.8 148.664 1129.69 148.784 1129.54 148.873C1129.39 148.962 1129.22 149.007 1129.04 149.007ZM1129.04 143.906C1128.77 143.906 1128.53 143.81 1128.34 143.618C1128.14 143.422 1128.04 143.187 1128.04 142.912C1128.04 142.64 1128.14 142.408 1128.34 142.216C1128.53 142.02 1128.77 141.923 1129.04 141.923C1129.31 141.923 1129.54 142.02 1129.74 142.216C1129.94 142.408 1130.03 142.64 1130.03 142.912C1130.03 143.094 1129.99 143.262 1129.89 143.414C1129.8 143.563 1129.69 143.683 1129.54 143.772C1129.39 143.862 1129.22 143.906 1129.04 143.906ZM1135.55 150.439C1134.76 150.436 1134.09 150.229 1133.54 149.818C1132.98 149.407 1132.55 148.808 1132.26 148.023C1131.96 147.237 1131.82 146.291 1131.82 145.184C1131.82 144.08 1131.96 143.137 1132.26 142.355C1132.56 141.573 1132.98 140.976 1133.54 140.565C1134.1 140.154 1134.77 139.949 1135.55 139.949C1136.33 139.949 1137 140.156 1137.55 140.57C1138.11 140.981 1138.54 141.578 1138.83 142.36C1139.13 143.139 1139.28 144.08 1139.28 145.184C1139.28 146.294 1139.13 147.242 1138.84 148.028C1138.54 148.81 1138.11 149.408 1137.56 149.823C1137 150.234 1136.33 150.439 1135.55 150.439ZM1135.55 149.112C1136.24 149.112 1136.78 148.775 1137.17 148.102C1137.56 147.43 1137.75 146.457 1137.75 145.184C1137.75 144.339 1137.66 143.625 1137.48 143.041C1137.31 142.455 1137.05 142.011 1136.72 141.709C1136.39 141.404 1136 141.252 1135.55 141.252C1134.86 141.252 1134.32 141.59 1133.93 142.266C1133.54 142.942 1133.35 143.915 1133.34 145.184C1133.34 146.033 1133.43 146.75 1133.61 147.337C1133.78 147.92 1134.04 148.363 1134.37 148.664C1134.69 148.962 1135.09 149.112 1135.55 149.112ZM1144.9 140.088V150.27H1143.36V141.629H1143.3L1140.87 143.22V141.749L1143.41 140.088H1144.9Z" fill="#6D6F79"/>
<rect x="1158.5" y="1.27002" width="23" height="168" fill="#E9ECF4"/>
<rect x="1158.5" y="1.27002" width="23" height="168" stroke="#D7DAE3"/>
<circle cx="1170" cy="85.02" r="7.5" fill="#FD5D11" stroke="white"/>
<path d="M1169.33 86.1867V90.1867H1168V87.52H1165.33V86.1867H1169.33ZM1172 80.8533V83.52H1174.67V84.8533H1170.67V80.8533H1172Z" fill="white"/>
<defs>
<filter id="filter0_d_4449_73204" x="451.5" y="131.27" width="86" height="29" filterUnits="userSpaceOnUse" color-interpolation-filters="sRGB">
<feFlood flood-opacity="0" result="BackgroundImageFix"/>
<feColorMatrix in="SourceAlpha" type="matrix" values="0 0 0 0 0 0 0 0 0 0 0 0 0 0 0 0 0 0 127 0" result="hardAlpha"/>
<feOffset dy="2"/>
<feColorMatrix type="matrix" values="0 0 0 0 0 0 0 0 0 0 0 0 0 0 0 0 0 0 0.016 0"/>
<feBlend mode="normal" in2="BackgroundImageFix" result="effect1_dropShadow_4449_73204"/>
<feBlend mode="normal" in="SourceGraphic" in2="effect1_dropShadow_4449_73204" result="shape"/>
</filter>
<clipPath id="clip0_4449_73204">
<rect width="24" height="24" fill="white" transform="translate(314 1.77002)"/>
</clipPath>
<clipPath id="clip1_4449_73204">
<rect width="24" height="24" fill="white" transform="translate(210 1.77002)"/>
</clipPath>
<clipPath id="clip2_4449_73204">
<rect width="24" height="24" fill="white" transform="translate(335 1.77002)"/>
</clipPath>
<clipPath id="clip3_4449_73204">
<rect width="24" height="24" fill="white" transform="translate(129 1.77002)"/>
</clipPath>
<clipPath id="clip4_4449_73204">
<rect width="24" height="24" fill="white" transform="translate(18 1.77002)"/>
</clipPath>
<clipPath id="clip5_4449_73204">
<rect width="1159" height="12" fill="white" transform="translate(0 28.77)"/>
</clipPath>
<clipPath id="clip6_4449_73204">
<rect width="24" height="24" fill="white" transform="translate(12 132.77)"/>
</clipPath>
<clipPath id="clip7_4449_73204">
<rect width="32" height="32" fill="white" transform="translate(36 128.77)"/>
</clipPath>
<clipPath id="clip8_4449_73204">
<rect width="24" height="24" fill="white" transform="translate(68 132.77)"/>
</clipPath>
<clipPath id="clip9_4449_73204">
<rect width="36" height="17" fill="white" transform="translate(467.5 136.27)"/>
</clipPath>
</defs>
</svg>
